P1
102 102
000000000000000000000000000000000000000000000000000000000000000000000000000000000000000000000000000000
001011001100001111101101000110111000011001101110110101010001010011000110100101000010010010110001101100
001001001110111011110011011001101110000100011111100010011100001100000001011000011011010011000001001010
010111000011101111100010111101100010101001010110100111001101010111001110111100011000011101000100011010
001010101101011101111000011011011111010010010000111111101010111001010100100110110000010100001111010000
011000010010101000111110110101010001101110011011100100110001100100111011000001001001000101011000101110
000000001100110110111001100111000010001110111110001111011001000101100110100000000111000110110100010110
011101001101110011011100000011010000110000100101010010000011111000011111100101100000100010000100010000
010100100001111011100110010100100000110110111101111100100100001001000001011011100010100111111011110110
000010010101100011110101100111010100011110100010000001001001101100100110000011011000010100000111110000
010111111011001011100101100110111110000011101000011111100100000001100101101000101111010110101011110100
001111001101110111000001111010000110101100110111011000010101000011010100010010101110101000011001010100
001000110000111010111100010011001110010010111011100101101100011100001010000111000000010010100000101100
010010110000100000110101101001000000111110100101111111111011011001010000110101110000100000100011111000
001101110111100110101111110111011001110001011011001011001000011010001000010000110010001000011010000100
011101111000011111011010110010001110100000000110110101011101010101110000101001011110111011101010011110
001011000110101100101101111101001000111101101001110101001001011100110111010001000001001110111111111100
000100101000100100000100101000100101001000000000011100110001101110000100001011110110111101101011011100
011100100010010000000100000001011011000011110101000001110011101110110101101100100100101011010101100100
001011011111010000101111010101010111100101110011000011111000110010000101110010100110101010111011100110
000111111001001101101110000010010101110101001010001000111111101111101010101011000111110101100110110010
000011010100111111010111100000000111000000011010110001001110100000111000011000110101101011000110000110
000001110011011110111000001011101010110011110000100111101111110101100100111100010010111001001011000000
010010000000011011001000111000011101000101010011011000101110111001100010110010110011101011110010110010
000111011101101011110111000010010100110000100100010010110100011011011001101110111011011101100011110100
010011100011110011011001101111110010010000010010111111001011010010000011100010011100110110011100101000
010110010100101111011101001110010100011101001001101111010100000001100100111000110000001100010011000110
010010101011101000011101100100010011001100101011011111001000110101101111010110100110010000100011010000
000110110100110111111001111111000010000110101000011101011001010001101010111001110000100110111011001000
001111101111101000110010000100101000101000111000101110010000100010110110100100011100010100011010000010
011101101111010011110101111100101011101010001111011100110101101101101101001001110101100011001111011000
001110110011001001111111011110111000001101001101010001110101110110010011100011110101101100110000000100
011011010000100100111110011000111011001110011001001101010110110111101110100011010001111110001101011000
000010011011100111110011000010010101001000101111010000101100111001011111110110011011001110011111001100
010011111100110011011000011101101010110010110101001010000000000010101011100110111011100100111101001010
011000001000011100111000001100010100101111111011101001000010100100110100001111100101011000101011111010
011111100011010010011010110100001111110001101110100011100100010111101111011100010111001111110101000000
000100000011110010010011000100111001010101000010011101101101001100100110010100100010010011001111001110
011000100011010101100011000010101111010001111100010101001101101011100101000000011110111111010000000010
011010100110001011111001010111111101111101110000011101011101001111000010111001000111010010100011101100
010101011100101001010100010101110110010110101111000000111100001101111100000010110001111100100011010110
011111100111110101000111100011010001001000000110011000110000000110110110100000111100011011110100011100
010100000101000001101001000001010011110000010010001110010110000011010011001000111110001010101010111010
011101011101100000111010000000010110110001001011100010010111011101011000011011001011011110010100001110
001000111010010101100111010010000100001100110000100110010101110000101101011010110100111111000101101010
010001010100101001100100110001110010111100011110001011010111011010011000100100111101010000011111001100
011000000000001100011010100111101001001100001101101001000111100111101110110110101111000110100110100010
011110100101010011011100000000000011111111101010110100001001110000011000110011111101110010101000000100
010000001111110010101100101111110011000110010100101000111111011101100000111000101010100111000001100110
010000111111110000010101100001001111000111111000000000000111101001101011111001101110100101001011001010
001110110101101100010000101001001000111101110001100100000111010110111000011001011001100100001111001010
001001011001111101001110000110000110110001001101000011101000110111101000111010010110100011101101001000
001000101111010101010011010111100001000101000101011000001100110100001110110110001111100011010100100000
011100100101000110101110010010101001100101010111111111011001111011010100110111001110010100011010111000
011011010100100110101000001011111100001100011011101010000110110000100011010000101010111011110010000110
001000000100111110111001011000010001010010110000110001010101101101111010000011001000101100110010110100
010000110111011001000111100010010000001110111001101011101001110000110100011101110001000000011111000010
011111010010001110010010000001111010100011010100111000101100011100010010100010100110010001111001111000
010011011101100010011001000000001010001111101100100101100110000010010110000011001011001001011001101110
011000000000100000001100100011000100100110001011111100011011011100010010001100010101001111010110010000
011000001101111100100000011010110111111101111010011110101000001011011000101010001101010000001000011110
001111111001110001101010001010011110001001000111101110000000100000000001000111111101011000011011000100
011100010110101001011101101010001011101011100011001000100101001111101100011110100001111011100111000110
001100001001101011100000000100100110110001011011010011100111111111001011000001010010111010111011100010
000100000101111110101001100101000101100011110011100011011101000010110110101011101100111100101111101110
001110101101101001011101000111010001011001001110011100101110100001000001010010011110110010101000000100
000000010111010100100011011101011000100010011001110001011101001101010100100011101010011011011110101100
010000100111101101110100111110111110101011111000000001010101010010100001011111000000101110011011000000
001011000101100101111011000010011110101101011001111011101010001100101100010011100110011011100101001110
001010110110000001011001100011110101011011001111111011111001111101010000110110001101100001110110100000
000000001000010111110101010010000000011110100000100100001000110110001110101111110101001001011110100010
000000110100001000001001011101110110010011110101010001101100111011000000001010001100111100111011101100
001000111001111101100110111110010101100100011111111010001110010101010111101001110010000011000010111100
010111100000010010001111111110010000110011010101001011010010111110011111110001000001101100010111100000
010110000011111100110110110100000011100011001101111000011010111101011101110100101001101111100111011110
011001111010111010001001111100001000011010101100111011101111011001100111000010001001011011110000101100
010110001001100010110011010110010110111000001011010010000111000110100111100100010011110010011101101000
010110001110100000011111001100100001110000001100011010111111110111110101000010011101001011110101011110
000011111000110011010011010111101011011001110100000110111010010101011111111010010000110100111010100110
010100110111010111001110011110011101110011100010011001110100010110000110111011011110001100101001001010
010101101000001100111111000010100110111111100010001011111100100111100101100101001110010000101010000000
010111101001110001010000011100111100100001001000100110101111110010101100011000111110101010010111011110
010110111011101000100101101111011100001000100001110001101100011010101011110111100101000001001100011000
010010000110001100001110100101111010101000011010010010000111111001001100100101010100101101111110110010
000000111011100001110111111101001110100110011001000101100000001110001001001010011011000111001101100000
011111101110011111001101111000100011010111010100010011111010000010001101101001110010111011000101001010
001100000110011010000000011111010110111001010111001011000011101011001000101111110100000011110111100100
000101100100101010100100010111001110100111110110110000101000110000000010001100100101011000001111010000
010100010100001011001100101011010111101100011111001001000011010100010111000110100101100101110001010010
010110011000111111100101000010110010101001110110011101111011001111100000000010001101001010100110101000
001001011010001000010100001110111110010011010000000001010010100010100010101100111010001110110011001110
011111011100100100001100010111011001010101100111100111110101111101111110011011101011110010100011100100
001010110111110001000011100100011111010100011111100001100111111101000010001100000100011001111111000010
010111111110010101100011010111000111110100011010100100110001011100100000110011100000101010010010100110
010100000100000000001101111110111010010000001110000011001101110111101101111001111000110101001110101010
000000111110010110010100101010111000100000100110000100001100100000110101110100101011110010001111101100
001001000110100001111110001011000101001010001010010011001111000110001001111000001011010011010011011100
000100100000010000001110001100001110010001001110000010000010101110101101000000000111000011110010010000
010100000001100110000000101101000010001111101010100010011101010000100110100111111011010011101000011000
011011001010000100000111001101001001000111010111110011100100111001000000000101110011011010101101010000
011101010010110010000001101000100011110110111110000100000101101111110011011101000010110100001100110100
000000000000000000000000000000000000000000000000000000000000000000000000000000000000000000000000000000
