P2
102 102
255
127 127 127 127 127 127 127 127 127 127 127 127 127 127 127 127 127 127 127 127 127 127 127 127 127 127 127 127 127 127 127 127 127 127 127 127 127 127 127 127 127 127 127 127 127 127 127 127 127 127 127 127 127 127 127 127 127 127 127 127 127 127 127 127 127 127 127 127 127 127 127 127 127 127 127 127 127 127 127 127 127 127 127 127 127 127 127 127 127 127 127 127 127 127 127 127 127 127 127 127 127 127 
127 130 244 128 152 208 200 64  112 3   218 163 28  135 177 37  12  100 185 205 249 67  204 88  133 143 19  102 133 208 194 59  83  44  223 21  243 172 144 89  187 44  209 89  128 235 123 200 34  55  73  146 89  254 160 92  156 224 28  199 192 238 54  102 8   182 249 144 64  153 158 243 52  6   106 161 55  195 164 33  215 0   125 129 214 249 32  102 119 254 238 106 140 238 104 57  68  110 128 53  26  127 
127 130 210 144 175 226 139 34  48  0   125 142 40  147 161 91  173 172 34  38  40  115 12  131 2   137 113 81  112 69  10  132 51  147 201 41  120 93  230 28  25  31  27  39  177 249 193 206 102 76  209 126 33  43  113 78  163 112 147 165 185 181 212 204 155 198 158 19  48  36  59  226 148 248 251 124 244 230 18  95  130 118 122 60  125 4   137 78  239 86  156 252 97  182 242 124 76  241 49  206 159 127 
127 31  20  252 196 75  130 80  135 179 45  75  125 66  123 185 151 69  251 12  241 126 86  180 139 179 242 141 75  212 148 226 30  53  33  144 169 62  148 57  182 52  249 208 236 14  235 100 41  217 145 19  213 150 249 230 203 18  146 103 62  182 28  67  18  234 61  58  5   216 85  102 234 67  16  178 123 47  59  145 234 166 48  239 102 233 63  58  36  92  41  57  46  76  54  18  16  254 244 208 21  127 
127 115 103 141 44  28  173 11  116 161 144 129 200 60  38  206 126 68  75  206 113 131 246 252 154 113 174 39  41  233 204 229 176 142 177 207 253 68  151 187 150 185 212 113 160 169 202 111 112 120 182 161 82  95  221 210 252 110 36  44  152 231 193 223 176 10  87  208 72  74  1   79  6   44  160 163 227 247 62  142 65  176 160 158 104 106 186 194 211 160 252 100 208 61  69  89  191 122 232 164 182 127 
127 22  127 142 125 126 116 107 245 176 207 29  112 164 12  96  181 144 96  62  170 15  87  192 127 63  48  58  80  9   133 213 150 37  225 49  215 172 112 140 237 155 56  207 107 154 158 224 50  45  33  161 84  56  113 17  160 142 56  188 147 73  201 104 230 19  170 183 185 32  197 66  58  65  138 113 88  171 66  212 95  141 83  190 69  237 107 114 182 206 14  22  177 151 214 120 176 246 1   198 239 127 
127 171 65  183 135 239 124 10  200 125 107 141 87  213 149 84  82  152 46  65  229 90  146 235 99  87  186 71  31  122 21  240 132 177 143 195 217 51  223 200 61  109 186 191 135 68  11  96  116 158 185 211 55  2   219 181 161 109 141 146 106 178 103 186 217 58  203 221 38  117 6   119 3   96  21  1   126 169 123 29  116 159 118 158 184 160 243 28  254 227 36  73  242 227 14  122 15  29  243 36  133 127 
127 34  56  204 23  92  150 58  243 84  123 221 69  18  108 246 86  33  14  124 250 22  216 207 111 41  79  120 183 222 118 204 164 17  56  51  193 121 154 194 36  81  3   189 10  149 205 3   6   128 253 39  88  182 160 13  116 236 221 142 161 30  59  151 55  54  129 81  179 220 55  205 162 127 192 30  230 135 185 191 236 220 174 163 236 107 196 134 169 69  201 40  85  47  131 182 64  58  29  172 20  127 
127 227 172 156 39  28  250 252 169 187 207 248 97  0   199 62  32  106 67  217 159 182 149 71  148 198 208 207 170 102 216 4   126 33  210 136 76  104 167 123 179 86  184 108 82  139 211 128 91  202 82  250 236 218 19  224 79  1   19  33  155 71  243 120 31  49  151 107 234 41  247 212 246 5   248 39  227 96  145 219 120 125 239 74  138 232 217 127 73  54  187 50  204 45  200 196 114 172 224 242 198 127 
127 162 155 204 183 131 97  110 165 66  2   101 0   139 102 1   92  131 124 147 8   3   42  77  195 243 77  239 110 226 251 18  62  97  154 164 105 193 207 25  250 181 104 75  124 186 200 136 24  119 59  176 122 237 222 148 111 215 165 189 8   247 161 230 107 199 49  167 162 82  247 17  231 154 104 177 45  81  133 63  153 242 54  209 228 16  193 159 13  147 237 245 75  160 129 28  156 154 184 98  71  127 
127 214 149 15  11  40  68  37  103 186 92  185 156 130 29  244 179 35  157 161 49  178 67  95  83  238 167 94  88  244 33  233 107 121 155 103 154 247 167 227 39  97  48  110 161 14  168 243 97  209 62  38  9   109 43  98  218 125 133 163 5   70  7   30  92  193 133 43  187 245 70  148 30  60  14  38  72  29  91  20  134 9   26  80  131 25  250 160 207 115 24  78  21  13  2   222 172 164 120 82  241 127 
127 33  206 188 83  51  217 131 72  187 103 135 132 53  124 174 168 183 70  203 91  22  219 38  224 200 216 17  126 181 131 198 233 88  168 127 126 237 230 127 171 31  244 227 44  38  180 145 122 131 105 220 79  157 149 14  28  199 185 59  85  241 3   93  200 86  63  117 90  212 140 140 18  21  182 13  179 113 220 234 11  51  208 143 189 207 162 78  103 54  182 133 156 214 123 213 94  45  179 181 214 127 
127 112 62  228 125 32  184 84  83  134 162 177 192 230 82  154 125 179 127 24  104 231 148 45  29  19  107 120 90  86  87  139 176 70  140 137 243 203 9   113 98  156 0   175 207 98  172 87  226 233 253 26  154 213 148 126 130 33  50  55  141 131 226 243 122 68  7   33  159 160 154 135 150 83  48  127 127 83  223 56  128 226 55  132 86  192 159 193 167 90  85  240 57  237 231 41  254 75  107 104 81  127 
127 103 205 131 243 3   110 213 148 118 159 64  96  48  94  66  120 252 136 113 21  124 196 223 202 139 81  102 179 217 229 118 123 0   4   54  65  82  185 186 138 75  199 143 88  66  59  247 61  111 195 182 13  101 61  2   28  254 180 21  83  167 198 250 240 161 108 21  99  156 80  29  71  6   7   190 206 158 96  246 6   188 77  70  2   6   220 116 155 47  151 88  175 178 235 24  247 25  92  171 247 127 
127 12  139 8   85  38  129 9   43  157 193 24  65  89  70  87  18  36  152 33  190 56  123 204 254 114 48  47  24  106 233 173 219 80  179 100 20  14  57  144 84  174 233 247 194 112 218 94  166 44  123 40  226 121 198 176 195 162 244 101 179 26  81  159 221 8   19  68  194 110 35  2   54  239 244 151 136 146 60  135 180 116 28  25  119 196 93  55  109 115 127 102 116 151 224 203 11  19  84  98  105 127 
127 118 239 181 50  27  235 111 48  108 129 92  45  15  246 93  243 131 221 156 190 119 239 102 72  231 26  12  16  127 66  194 102 27  218 11  38  248 195 236 230 50  116 253 181 65  16  47  0   203 185 42  15  82  56  59  111 213 9   30  173 19  25  145 232 79  143 221 82  204 36  5   209 211 177 245 7   122 166 149 30  232 20  2   172 75  50  192 136 60  59  246 150 190 50  42  238 90  142 195 134 127 
127 194 187 26  204 218 62  77  158 200 187 125 186 98  233 58  234 134 53  71  7   13  79  42  28  116 64  55  217 159 117 144 229 189 109 121 131 111 149 117 231 62  234 126 197 227 8   82  65  100 113 217 191 125 151 22  147 93  128 158 176 55  82  92  80  248 250 108 208 31  148 158 139 91  53  7   50  83  35  116 204 234 155 56  82  139 142 105 40  54  117 248 125 47  178 36  33  252 28  222 231 127 
127 176 239 160 150 44  22  181 204 67  152 180 209 209 156 184 119 11  58  219 222 56  137 152 136 139 69  219 78  97  21  36  57  244 56  248 53  29  33  112 236 39  152 164 103 134 47  99  55  145 223 60  189 47  106 63  82  228 31  135 70  93  110 58  117 201 87  31  21  171 74  140 172 227 87  172 212 110 39  68  206 165 203 242 111 187 228 12  21  183 182 190 201 132 49  66  52  131 99  60  202 127 
127 66  245 156 153 46  20  234 118 43  148 4   11  125 179 245 103 137 135 31  47  129 149 35  56  16  113 240 81  160 220 57  43  87  68  138 121 20  212 120 59  54  81  57  74  4   38  199 92  96  241 202 7   49  113 159 141 105 177 221 216 217 122 172 118 210 7   138 125 69  193 171 111 227 186 46  254 72  96  81  17  154 29  128 61  153 96  169 93  167 81  7   149 202 249 39  244 126 67  98  122 127 
127 219 67  96  22  185 148 109 198 123 10  39  192 19  90  59  114 11  248 177 41  44  226 68  46  122 24  57  252 146 119 46  155 251 89  90  208 156 124 109 86  62  229 251 122 150 109 221 13  250 152 69  55  120 30  185 41  151 203 168 52  58  185 173 2   46  88  5   176 159 24  248 82  7   54  192 75  13  110 204 114 13  35  182 69  254 10  85  152 50  105 147 73  20  107 132 234 5   89  62  199 127 
127 176 69  228 191 98  102 56  77  29  226 152 142 221 180 59  16  4   169 142 92  237 68  129 40  166 66  52  146 200 228 122 166 166 195 21  130 152 221 179 21  108 79  221 15  133 95  69  218 87  123 27  202 32  132 100 136 76  115 21  133 209 247 236 93  205 103 51  83  144 129 204 34  62  247 205 164 190 108 37  166 254 145 244 134 113 49  110 178 69  16  221 105 173 163 251 33  14  47  77  153 127 
127 116 254 121 70  108 135 103 233 123 67  142 40  205 174 194 220 20  118 158 1   200 177 46  249 222 214 88  190 178 157 17  9   103 104 151 108 167 69  21  54  126 22  193 179 248 160 130 138 42  74  18  216 47  70  95  147 62  106 54  133 37  58  208 235 200 115 161 240 197 204 104 185 192 93  247 39  100 31  220 228 246 220 90  33  186 251 4   129 142 188 29  89  160 107 58  217 95  218 58  143 127 
127 68  116 155 14  138 103 100 222 238 57  81  105 126 197 65  10  60  132 42  184 19  183 150 52  61  100 54  154 20  111 107 235 173 219 94  67  106 70  237 226 156 111 112 137 197 233 40  52  161 100 90  205 0   34  66  41  2   179 163 7   235 79  34  160 238 31  99  105 16  96  70  51  35  111 217 230 195 54  21  95  145 3   33  14  172 223 249 149 175 64  215 171 184 131 110 46  24  171 82  198 127 
127 131 78  21  81  159 170 110 21  238 172 49  19  193 223 45  111 168 228 88  57  126 113 240 112 212 241 173 82  121 133 142 15  104 81  223 20  36  166 103 80  233 159 253 98  217 212 146 251 141 24  141 129 13  199 245 103 181 45  84  135 45  76  245 113 239 165 17  138 170 73  32  54  20  229 80  75  127 243 59  84  73  94  124 46  240 125 132 156 116 16  0   158 79  80  248 107 249 247 105 83  127 
127 84  33  225 38  245 118 236 208 169 213 34  64  104 72  111 225 200 246 29  182 9   191 69  66  180 70  182 78  116 165 142 3   140 18  204 204 248 129 31  135 221 95  174 14  160 188 60  149 20  130 204 109 221 94  180 134 104 131 74  239 250 207 33  17  194 204 62  10  132 206 4   129 241 222 75  130 49  52  198 61  52  207 159 68  248 18  120 31  243 93  131 149 231 188 106 238 95  197 78  216 127 
127 211 249 217 19  116 28  171 188 215 247 206 150 91  227 195 166 93  62  23  21  29  147 228 17  36  92  165 125 171 6   212 187 169 31  168 92  193 68  154 27  20  14  197 21  163 150 125 96  79  157 106 204 157 48  27  173 29  157 163 10  131 28  245 131 179 75  207 166 132 91  215 132 197 142 139 14  149 18  168 223 18  213 159 5   9   120 197 50  213 171 15  113 228 64  117 69  167 196 242 197 127 
127 134 57  151 142 59  207 244 164 124 194 96  212 215 169 116 215 176 253 50  183 199 109 127 75  171 73  37  110 200 126 227 148 195 57  32  26  211 180 79  171 194 189 200 65  250 208 204 207 84  61  84  19  149 50  35  240 136 207 54  63  134 107 44  153 159 82  228 120 226 111 228 71  106 26  220 135 196 108 228 40  147 211 150 168 248 219 212 166 239 149 117 230 198 225 180 139 224 118 8   167 127 
127 147 149 92  94  178 117 199 24  99  150 96  22  56  200 7   157 79  184 37  173 26  91  217 204 36  12  148 122 175 14  15  171 224 190 138 57  234 226 190 183 199 194 230 43  54  2   65  90  199 131 60  82  8   160 64  171 119 26  97  4   218 57  105 153 98  57  144 123 29  97  42  116 49  16  48  223 118 220 98  198 163 26  231 41  13  113 167 142 208 33  14  193 207 191 202 173 226 163 184 133 127 
127 13  177 57  67  57  103 191 39  35  30  35  93  238 44  132 124 95  250 35  253 253 90  143 168 120 162 72  252 183 58  145 130 153 228 24  208 163 47  8   156 84  120 244 47  85  67  213 141 248 136 176 130 133 63  152 31  118 64  195 115 142 182 215 47  109 62  109 41  40  144 70  10  163 132 21  219 10  100 141 106 2   206 196 113 21  99  14  205 18  205 165 39  241 72  212 137 182 250 6   120 127 
127 201 210 74  62  78  223 18  180 73  147 11  170 209 243 198 78  163 30  29  0   197 21  156 145 34  95  159 164 10  74  186 189 22  167 149 84  60  232 233 27  86  238 223 104 226 23  3   88  14  167 92  180 194 204 205 21  188 26  244 225 236 209 42  100 57  145 100 226 153 48  77  228 254 92  57  39  148 113 217 82  62  94  134 38  77  225 81  90  124 159 81  55  118 0   217 189 236 112 184 72  127 
127 163 85  77  250 28  129 23  174 23  222 183 191 109 205 35  225 156 114 155 15  189 218 0   100 238 190 238 2   11  222 66  172 83  36  231 92  32  214 29  237 53  194 135 221 74  29  217 34  68  209 214 135 192 40  246 158 195 172 219 57  163 106 124 6   137 161 96  15  227 179 168 98  105 108 155 124 88  114 41  75  5   112 203 60  107 140 247 219 90  183 74  234 28  46  49  84  118 246 84  244 127 
127 217 47  38  233 10  210 214 84  119 238 13  58  189 199 28  135 243 35  120 156 176 51  227 49  26  96  190 171 130 68  140 73  57  156 213 144 184 196 91  85  113 157 6   8   114 220 205 219 73  21  192 183 121 25  40  164 217 201 65  195 45  14  125 94  113 157 40  173 45  119 234 73  20  0   154 99  27  121 107 22  0   17  101 37  60  156 110 72  85  50  103 110 24  209 117 188 82  83  231 89  127 
127 202 2   55  23  237 50  239 232 62  230 87  56  114 22  96  53  27  192 221 147 125 49  28  208 47  194 182 230 226 58  34  36  93  234 25  22  160 184 100 204 156 208 230 216 16  29  56  38  40  223 71  141 64  91  43  72  19  119 45  211 25  38  52  155 20  84  205 248 41  104 215 119 38  65  244 235 9   21  20  80  226 147 224 26  60  19  233 1   138 190 15  67  204 10  191 190 179 174 58  83  127 
127 1   230 167 86  224 13  207 188 5   215 214 194 158 33  59  171 55  131 214 109 254 93  39  31  151 76  68  251 128 24  72  173 177 21  192 80  88  67  126 8   181 135 100 56  176 86  110 211 144 95  198 197 186 251 198 171 89  208 197 88  179 202 181 159 61  76  12  128 118 181 220 110 163 169 252 225 14  137 1   190 222 158 121 102 82  225 216 116 69  66  215 79  133 5   183 33  132 130 59  163 127 
127 96  114 139 107 98  110 134 122 76  238 248 245 44  49  189 81  17  103 8   200 54  165 5   36  85  11  127 40  213 111 138 193 59  147 87  174 73  164 43  85  57  43  24  192 9   55  167 138 124 40  214 23  225 37  225 66  144 137 28  241 49  110 214 23  116 221 113 34  102 111 119 25  123 12  253 24  54  98  54  188 20  171 69  232 201 169 102 164 27  123 189 162 208 94  52  14  108 131 150 184 127 
127 32  253 127 106 9   104 48  24  197 100 236 247 225 101 66  54  219 234 142 5   151 186 46  37  164 73  178 235 23  195 202 23  228 17  13  102 57  123 79  92  134 134 156 41  121 29  156 251 236 244 217 173 215 123 39  119 52  66  38  148 104 154 67  135 165 58  141 236 199 67  156 82  110 87  16  234 250 127 30  125 57  247 85  61  169 193 239 113 94  169 107 233 117 90  203 103 69  220 159 110 127 
127 245 233 249 160 218 201 58  8   120 249 73  90  117 133 173 185 218 230 181 137 45  50  97  205 82  46  132 134 27  107 182 34  217 28  145 124 83  131 69  69  116 232 176 168 49  74  73  46  209 14  75  217 148 175 10  39  119 135 218 80  249 79  189 27  35  169 14  194 224 126 28  121 18  23  141 83  183 127 213 96  196 29  231 209 7   106 172 108 65  6   70  177 177 40  205 54  236 27  231 84  127 
127 243 109 254 186 184 16  207 87  78  25  99  189 87  219 124 137 75  109 44  229 158 63  109 0   113 141 196 53  218 182 246 127 146 156 112 254 46  50  48  178 78  134 66  138 220 208 56  39  152 63  71  205 50  197 53  186 111 76  14  42  41  117 2   134 97  0   185 45  41  171 109 150 184 233 201 14  197 175 122 189 12  147 64  180 180 34  124 181 172 88  106 32  158 83  22  5   132 233 180 138 127 
127 179 156 118 194 167 80  55  246 245 254 18  47  247 183 109 38  164 173 112 244 155 222 17  95  214 201 189 53  199 115 228 177 183 90  224 245 239 171 8   190 196 124 220 73  249 54  11  196 163 70  201 92  110 22  110 175 183 108 58  149 39  111 181 80  8   146 47  230 83  110 134 81  167 47  130 113 235 144 37  175 210 91  232 251 244 90  228 111 31  35  190 0   44  167 204 219 80  254 47  207 127 
127 27  84  49  67  189 168 253 220 148 215 144 94  70  206 13  78  37  222 193 183 138 12  99  104 200 17  79  239 130 191 185 110 12  69  202 94  94  146 84  202 240 210 77  138 220 21  179 43  44  157 110 167 193 157 235 233 70  209 217 24  2   169 12  42  159 138 30  53  35  171 61  71  172 204 208 154 200 226 205 104 138 124 219 227 59  105 128 178 37  16  26  36  163 19  36  58  201 179 31  0   127 
127 220 136 117 230 112 235 88  201 39  200 179 86  22  215 252 235 156 147 177 97  41  98  18  126 190 59  167 0   247 79  12  133 12  22  74  149 32  80  128 123 204 104 164 232 155 236 207 171 155 244 238 15  222 81  138 84  134 129 127 35  254 31  56  96  67  111 148 247 223 136 24  119 244 37  190 70  14  231 139 207 248 93  191 182 249 25  119 13  228 240 138 189 157 59  73  85  166 133 189 187 127 
127 215 204 27  113 28  254 155 65  24  26  226 90  49  75  209 168 234 84  4   97  42  34  211 181 148 169 77  183 153 112 191 113 233 13  141 195 43  142 164 70  200 193 80  75  216 177 48  248 68  24  207 65  195 175 200 178 232 93  74  216 190 112 9   25  127 123 15  1   65  75  169 246 206 129 87  241 64  186 220 241 96  7   223 247 186 135 246 172 134 148 228 169 69  36  237 126 59  115 233 242 127 
127 100 190 173 125 245 199 244 181 230 182 77  217 113 88  110 183 123 48  62  109 118 31  93  1   10  117 252 148 82  129 238 149 10  163 132 51  161 193 130 248 137 63  114 171 29  224 192 44  77  111 60  40  80  146 98  96  174 207 41  156 4   7   169 235 184 36  180 46  146 51  2   62  232 136 63  13  88  9   253 85  6   173 200 28  83  7   62  187 100 149 32  231 19  125 245 201 168 19  100 130 127 
127 127 193 223 66  120 67  213 109 210 86  25  33  79  232 190 197 5   88  187 222 205 130 168 233 54  249 23  198 171 117 207 95  31  21  9   196 112 49  57  74  17  117 186 145 160 134 157 160 249 77  5   54  180 234 222 20  46  117 32  4   104 50  115 30  63  204 50  22  198 49  234 76  208 93  35  13  73  236 201 222 134 168 11  161 206 46  117 47  150 235 164 161 73  5   170 119 235 69  237 37  127 
127 113 211 40  135 69  47  35  217 22  218 121 166 130 93  137 48  139 226 97  41  148 236 133 127 91  107 99  59  179 178 44  57  65  32  150 166 253 152 181 212 41  65  173 40  203 249 114 10  5   179 207 34  72  173 136 106 121 243 221 227 172 251 109 47  140 106 151 134 253 58  199 148 6   195 91  232 136 221 70  195 166 229 113 212 176 247 194 22  202 8   221 227 48  18  133 90  185 121 187 246 127 
127 109 66  49  84  141 216 167 46  53  95  202 155 175 12  26  52  77  185 42  48  32  127 199 85  162 108 37  78  211 155 185 119 72  59  244 223 119 55  104 240 248 122 194 77  127 224 20  156 63  132 159 163 196 177 30  148 92  233 142 108 123 162 91  161 204 132 64  133 184 232 143 163 67  27  33  59  138 225 121 54  96  15  152 1   129 221 194 12  17  51  101 42  168 139 236 31  51  72  30  210 127 
127 142 101 141 14  244 134 102 166 115 230 170 98  143 95  79  3   151 228 53  122 143 134 13  96  186 149 4   158 254 246 228 226 188 253 23  120 212 247 45  190 86  169 169 162 250 7   73  184 104 174 50  219 40  159 60  243 105 161 154 112 148 120 23  153 234 179 112 52  115 163 142 248 233 102 149 118 4   188 123 81  160 57  164 95  156 125 80  36  198 117 22  60  54  70  82  117 82  95  208 196 127 
127 29  153 111 183 252 72  117 228 218 185 120 123 57  119 79  210 142 144 223 233 119 77  109 243 18  208 57  176 219 49  26  243 38  91  206 63  46  232 116 63  64  109 18  71  251 207 50  115 252 96  111 199 135 238 232 221 244 253 31  4   25  229 77  254 221 114 91  161 235 148 27  179 116 113 82  99  164 17  89  62  202 224 236 190 111 188 213 154 35  147 220 149 246 118 19  61  28  185 87  151 127 
127 130 172 198 254 173 21  62  104 173 59  73  84  78  200 61  200 16  205 24  118 20  6   235 62  168 16  169 177 206 249 55  39  238 121 119 130 50  148 84  110 92  164 227 90  46  25  40  173 233 121 205 162 135 47  190 142 28  125 229 104 226 122 118 125 95  120 244 227 172 14  177 227 42  221 149 128 125 56  50  101 8   192 83  47  19  34  143 162 194 128 124 44  85  164 117 117 66  214 144 77  127 
127 159 30  43  68  247 72  32  37  142 179 46  221 186 189 24  74  47  66  222 74  1   2   188 242 241 171 43  72  244 139 107 212 154 246 84  7   137 210 49  236 34  249 215 143 163 233 77  6   49  188 243 54  40  30  133 51  0   81  38  90  178 53  3   67  71  21  122 20  176 179 153 57  112 203 123 187 107 137 59  87  131 116 20  87  112 85  77  254 207 10  241 212 198 218 134 224 251 190 58  48  127 
127 125 16  202 151 219 64  30  224 41  232 74  112 123 88  161 187 195 69  220 132 53  59  54  58  142 196 251 123 191 137 17  130 199 101 91  184 11  64  198 85  82  137 170 125 52  205 2   119 41  200 124 113 43  126 225 161 73  57  140 20  25  188 232 64  32  75  64  128 36  109 46  150 240 34  226 78  116 114 243 36  112 178 136 44  142 14  5   144 208 41  68  10  221 203 62  66  187 22  222 75  127 
127 55  133 91  231 36  148 228 215 209 74  239 27  56  74  207 58  76  248 49  47  78  116 190 171 76  87  57  157 0   62  217 139 148 207 194 119 30  84  148 36  171 121 74  178 90  206 198 182 150 34  58  122 224 70  42  177 65  23  157 228 24  224 196 148 210 16  170 28  180 92  40  17  149 4   79  223 157 161 179 26  72  240 106 53  37  90  86  18  74  46  254 183 132 181 234 117 84  55  40  57  127 
127 180 246 181 172 121 245 68  37  98  93  5   145 147 116 144 101 156 171 192 173 142 194 7   247 31  198 220 218 124 224 177 174 88  252 14  99  94  203 107 132 206 12  88  208 234 61  174 71  251 49  254 92  23  120 71  105 252 118 18  133 85  79  100 193 145 32  225 163 90  125 205 109 18  212 45  48  121 60  204 244 75  164 72  130 25  159 157 192 77  227 240 87  74  253 235 209 100 26  116 4   127 
127 248 131 103 86  217 137 170 234 42  104 56  3   102 163 22  119 167 92  153 30  239 79  227 235 127 217 68  175 86  224 177 126 174 30  234 114 64  43  87  231 33  234 160 19  74  193 2   176 209 9   103 242 242 40  144 215 45  26  185 34  48  90  127 153 144 106 211 251 214 110 232 117 101 65  114 125 252 49  243 42  35  215 76  27  7   230 43  97  238 176 97  95  187 54  18  142 169 137 74  117 127 
127 47  65  186 236 160 192 128 22  13  71  97  176 242 92  223 232 47  196 131 74  95  220 134 209 243 15  165 187 85  139 68  159 250 20  204 89  195 103 132 58  174 42  190 163 88  75  254 108 171 46  147 254 25  253 85  204 56  15  56  14  150 137 159 69  43  120 86  23  147 195 4   161 225 54  24  172 83  160 134 243 15  112 153 138 83  201 57  238 120 145 31  245 206 103 215 98  34  2   106 157 127 
127 144 202 47  66  59  238 109 207 214 71  71  75  140 128 143 17  224 69  241 21  17  228 159 201 70  219 112 82  131 80  166 142 243 153 18  110 193 86  99  141 140 147 159 86  200 56  190 248 247 78  80  225 108 41  179 212 124 243 5   66  167 153 247 206 52  84  53  241 201 115 47  115 103 35  103 239 239 43  120 215 205 140 189 90  81  96  203 134 239 250 31  28  118 246 82  81  177 216 19  83  127 
127 93  228 61  93  203 148 158 84  174 185 43  214 69  168 64  25  103 33  197 225 140 49  131 156 135 233 24  234 204 18  70  95  133 8   16  147 187 35  1   204 203 149 210 247 111 98  235 26  158 114 192 1   128 23  154 100 81  0   213 32  94  178 159 23  163 72  69  150 35  162 238 217 93  191 136 212 189 229 9   246 60  199 62  163 105 123 169 78  64  148 73  100 0   191 253 108 171 24  147 167 127 
127 183 11  46  28  105 146 207 112 158 53  67  50  214 142 21  30  15  136 222 97  177 176 161 173 172 145 224 148 195 217 14  1   214 106 47  89  117 190 134 12  172 215 188 162 69  180 42  39  153 19  184 96  44  251 66  154 167 51  59  64  8   137 95  233 247 30  32  238 84  89  243 225 105 181 161 53  161 56  38  86  122 221 79  231 185 150 145 0   68  175 97  144 1   185 69  250 223 182 168 47  127 
127 150 197 153 217 49  195 112 75  209 78  113 142 126 55  154 62  134 15  127 88  40  159 39  191 241 108 14  107 156 105 100 30  98  193 203 237 236 66  122 103 107 133 43  97  74  89  40  80  180 199 135 42  158 136 111 224 32  175 14  109 145 98  78  83  197 222 44  29  117 64  76  28  227 19  146 166 88  237 24  170 183 224 146 100 254 73  32  19  64  172 183 8   18  18  147 188 161 227 246 242 127 
127 72  156 176 35  229 33  215 9   123 200 52  181 217 191 61  35  164 164 37  163 242 5   163 106 44  137 111 145 52  29  95  173 16  181 118 246 211 233 12  242 61  77  188 247 139 26  100 74  29  5   16  88  83  17  76  77  130 145 47  230 173 1   201 225 2   48  62  171 129 167 28  13  68  57  222 137 124 160 138 62  31  249 172 165 24  176 156 211 185 176 226 129 211 182 90  70  190 51  155 244 127 
127 40  232 26  92  128 34  252 121 34  138 128 171 198 6   20  113 175 181 205 84  212 192 118 87  32  201 14  59  176 237 241 181 111 34  216 65  73  218 152 14  111 181 169 8   232 212 87  50  246 96  204 217 90  49  66  7   115 139 98  45  229 219 231 95  190 11  23  87  79  190 36  69  145 106 27  155 80  63  224 115 110 134 116 83  194 87  142 51  36  111 69  65  221 131 48  185 44  129 122 190 127 
127 156 126 15  1   6   204 49  150 69  41  199 112 126 74  33  145 123 68  120 114 17  218 4   172 231 26  110 89  214 155 173 18  243 105 246 250 118 165 162 31  221 239 121 238 72  0   20  213 30  42  27  209 87  13  128 148 27  96  41  66  144 30  9   187 52  151 193 60  61  199 43  208 60  55  145 51  112 123 160 162 121 217 254 174 22  175 47  62  104 135 75  118 103 145 43  146 36  58  222 21  127 
127 187 235 160 14  251 93  171 94  199 208 128 77  208 125 114 91  88  208 40  93  41  108 234 156 113 91  134 76  49  189 93  226 21  100 70  188 51  159 169 45  185 104 140 242 217 23  126 161 9   135 126 27  200 45  7   232 62  92  186 62  181 204 6   127 209 21  166 94  160 151 66  195 134 1   202 50  241 17  200 99  243 160 5   191 230 168 140 5   141 11  71  52  151 230 50  176 121 118 173 127 127 
127 66  190 239 151 38  139 224 92  97  53  67  112 147 60  209 49  154 152 106 24  212 89  27  138 173 198 91  176 210 229 95  20  189 148 56  20  7   30  215 84  195 211 83  105 39  38  28  54  155 183 45  60  238 12  94  3   124 156 17  171 102 27  192 183 209 230 150 233 216 2   177 181 55  179 104 131 139 82  165 185 213 45  121 78  105 140 176 165 73  141 20  129 189 252 147 55  14  49  215 55  127 
127 133 18  186 122 198 108 40  138 119 75  245 43  158 66  145 198 241 169 70  104 225 66  30  75  11  87  208 21  58  244 44  153 240 40  30  68  192 101 100 132 164 39  20  243 238 207 1   149 99  42  3   220 6   88  79  54  20  121 155 209 179 92  193 167 101 166 79  46  34  27  190 118 11  87  95  231 128 34  56  193 81  97  162 171 114 235 206 96  83  219 150 123 10  181 30  149 150 197 226 88  127 
127 147 60  2   151 101 189 147 111 140 240 82  117 52  125 8   34  207 180 13  130 28  201 137 170 186 119 214 172 131 125 15  221 15  14  224 67  134 9   73  220 5   33  156 67  172 8   23  247 212 247 240 15  164 152 129 167 127 24  75  151 120 107 59  196 30  33  84  151 87  156 2   186 193 248 138 188 228 161 154 139 127 35  235 130 236 120 189 38  188 68  11  0   221 198 99  49  15  198 107 155 127 
127 194 88  252 182 248 182 86  169 13  8   120 99  68  222 206 190 67  200 240 175 213 164 209 188 116 96  91  43  73  171 148 5   56  206 3   201 243 97  114 92  154 227 219 239 206 153 187 151 35  121 243 91  13  10  145 28  126 34  106 220 99  248 113 201 6   23  225 62  138 36  11  163 155 154 142 245 73  35  53  5   139 145 68  18  116 161 43  25  194 130 223 84  29  153 101 233 203 186 75  148 127 
127 184 244 50  97  28  251 19  219 200 221 202 122 68  2   94  5   221 176 188 186 172 139 98  74  56  180 76  245 192 212 159 234 227 233 100 48  183 44  126 160 85  22  223 140 185 117 241 51  178 120 120 131 191 0   219 81  81  135 206 46  209 152 20  155 158 57  114 86  34  38  248 228 223 215 220 237 95  206 173 149 53  115 65  143 33  188 46  27  106 116 84  83  69  131 67  244 156 212 51  156 127 
127 117 36  87  194 141 102 245 241 55  47  158 167 231 116 60  37  198 102 228 150 188 176 17  238 41  29  247 93  156 176 152 65  123 50  45  137 33  248 236 212 186 57  108 72  30  62  42  203 131 188 125 81  54  44  141 149 169 177 27  33  78  77  58  122 115 37  141 234 29  156 116 79  92  53  86  14  16  121 206 190 59  231 16  231 69  141 19  51  146 156 115 67  186 132 102 218 55  198 241 41  127 
127 233 167 237 34  82  196 31  1   32  26  126 221 20  253 176 242 58  77  43  5   228 69  45  58  39  136 253 183 104 115 147 105 93  247 130 7   35  199 72  82  12  203 157 120 238 212 85  82  81  150 253 151 160 128 189 105 10  48  20  100 240 225 46  173 143 10  152 190 182 216 21  243 211 214 130 250 43  21  199 142 189 155 239 234 155 119 187 133 70  135 78  62  187 136 204 54  101 60  45  89  127 
127 161 47  152 163 199 3   174 70  75  73  155 254 82  178 191 164 146 27  228 101 70  31  7   21  143 32  223 225 17  103 86  231 60  112 30  43  244 15  101 4   222 213 248 166 169 55  118 69  126 138 231 182 181 142 70  108 107 154 252 113 171 2   201 139 88  65  40  210 26  85  168 59  97  122 24  185 239 156 185 183 65  9   166 162 242 214 112 11  67  138 204 213 182 134 156 221 236 251 120 10  127 
127 77  98  168 233 168 163 111 232 237 241 10  31  19  65  22  172 225 33  49  44  218 170 165 204 184 212 234 22  106 152 87  228 174 121 198 21  119 72  10  102 137 59  138 40  94  209 97  75  115 167 108 57  51  92  167 181 89  1   158 143 159 14  116 110 122 126 46  39  73  84  251 215 176 239 183 2   226 181 30  245 150 129 225 220 225 209 75  143 56  2   181 253 200 165 52  219 106 69  187 46  127 
127 9   214 95  173 155 60  105 69  73  207 224 87  26  244 26  206 50  211 103 221 231 176 11  223 59  136 18  196 216 92  145 204 44  10  216 241 183 109 78  115 178 3   55  76  54  184 137 65  219 164 232 208 238 100 65  35  47  20  72  43  190 252 196 0   62  10  240 200 116 121 187 5   120 6   213 245 113 223 140 139 58  78  203 193 250 171 142 86  204 35  233 148 104 70  101 117 195 129 220 44  127 
127 218 67  228 203 247 11  100 242 202 119 103 133 178 23  164 28  208 158 250 195 181 138 36  66  110 211 2   182 186 248 108 59  208 78  159 205 149 201 141 95  34  134 232 142 13  95  248 108 42  164 130 122 129 46  172 191 28  168 134 94  27  29  14  148 249 94  98  239 120 79  97  80  177 56  140 129 175 114 132 82  246 86  227 152 116 221 172 10  221 241 52  34  111 163 82  205 2   87  197 158 127 
127 141 108 96  243 20  184 16  136 203 206 215 194 193 27  102 120 235 137 17  155 26  36  139 170 142 209 113 156 10  113 40  191 43  112 34  189 188 193 233 85  67  225 112 68  236 161 250 222 7   189 93  28  184 113 166 120 162 249 142 69  169 235 163 129 27  227 112 162 57  130 55  37  175 164 109 111 133 24  39  138 51  202 36  40  132 152 1   242 147 164 55  115 202 67  127 232 241 12  126 206 127 
127 59  28  129 162 92  23  182 82  112 40  189 88  34  33  245 254 179 200 223 164 14  209 161 160 21  183 55  146 44  9   90  174 216 157 152 81  90  198 251 196 230 244 67  134 151 146 242 90  201 223 150 100 174 73  162 24  230 93  239 154 206 122 127 66  130 172 85  12  241 12  191 122 231 209 114 96  169 183 101 116 30  92  231 46  27  37  20  219 212 212 207 226 197 164 150 200 238 221 234 192 127 
127 160 59  136 177 32  0   113 196 51  25  145 52  99  13  211 175 16  133 94  171 115 36  68  209 7   157 41  116 154 55  4   63  46  8   88  103 185 103 206 209 128 202 245 146 206 180 102 66  110 125 88  239 113 108 236 204 98  115 139 158 132 227 87  54  204 233 244 147 230 92  64  157 28  177 113 184 89  241 31  210 56  108 241 237 93  9   40  245 19  161 84  49  172 186 76  109 164 12  144 37  127 
127 83  66  48  28  225 36  40  63  211 86  150 0   174 135 187 227 55  230 185 96  27  134 54  205 117 133 248 162 71  156 51  200 2   225 14  177 124 34  179 114 202 144 51  198 19  142 64  193 98  88  155 245 248 128 99  49  70  78  169 170 122 186 236 87  212 194 112 62  133 23  14  115 190 222 49  130 121 193 201 18  127 196 66  181 30  13  202 143 157 79  173 213 196 233 102 136 134 50  172 236 127 
127 106 171 48  192 6   247 61  219 27  71  29  30  121 200 237 75  13  232 142 102 20  73  60  100 161 143 125 190 179 120 244 85  23  153 156 59  110 184 97  95  36  29  172 77  115 183 228 196 1   253 21  169 116 228 218 141 232 251 60  81  106 115 204 168 242 198 149 155 47  149 33  190 42  251 185 203 13  208 121 94  212 132 76  42  163 60  62  43  108 133 132 167 235 34  167 136 91  66  47  128 127 
127 134 77  110 138 85  94  22  34  218 196 211 254 181 52  98  108 39  11  141 204 91  114 141 207 141 234 226 237 224 216 139 137 90  252 133 127 81  174 59  71  111 224 44  71  0   173 191 242 39  182 22  68  56  160 39  242 208 68  88  103 6   64  1   239 127 139 146 88  119 154 151 234 188 193 22  201 77  242 62  134 64  174 151 84  182 189 214 19  52  5   13  29  52  95  169 140 84  115 247 11  127 
127 183 89  115 215 246 167 98  186 138 101 181 122 226 170 182 64  127 178 187 80  195 18  23  25  155 50  204 181 245 65  113 117 208 154 15  153 151 85  211 173 73  28  231 34  142 228 155 77  222 84  225 28  244 221 150 147 198 82  221 231 142 199 130 164 177 170 156 194 72  182 135 117 176 179 241 176 194 94  232 2   88  227 131 226 162 96  154 213 82  144 127 31  186 61  221 78  250 225 142 0   127 
127 186 19  235 86  204 221 41  68  215 151 118 161 117 75  163 235 7   15  156 140 168 107 196 108 230 172 161 41  45  208 193 138 112 114 91  209 32  50  252 219 90  155 141 199 149 66  10  214 195 226 254 127 168 94  7   228 121 18  161 120 205 234 138 173 194 34  250 59  10  164 138 40  191 193 111 78  81  202 177 223 100 145 0   185 28  118 157 186 52  205 109 151 11  245 55  231 217 177 250 63  127 
127 128 206 85  138 98  227 208 233 58  79  183 194 102 199 150 137 24  233 62  173 42  38  195 140 241 126 201 241 107 72  117 205 133 88  137 191 78  99  81  32  40  253 225 215 94  170 167 24  141 76  45  127 167 157 212 242 94  164 60  67  83  37  29  222 100 119 237 194 219 234 31  99  132 115 60  17  91  230 42  126 76  34  72  43  160 137 169 243 171 163 122 210 70  169 53  2   121 24  25  154 127 
127 15  47  198 155 139 181 79  145 247 98  189 11  152 9   193 198 125 228 27  109 27  188 98  91  228 227 215 144 109 125 153 92  150 19  119 15  89  88  28  114 39  0   160 204 134 154 234 236 72  143 219 8   197 77  200 62  113 76  132 124 190 224 195 135 207 204 181 150 234 19  89  166 70  146 103 49  130 44  224 84  202 18  172 178 232 166 115 105 155 223 103 132 126 141 190 33  185 193 56  179 127 
127 150 191 2   121 129 250 33  47  228 16  160 47  101 118 27  27  132 203 95  128 250 36  176 113 18  148 14  194 106 198 189 236 23  127 90  178 48  39  134 44  117 1   224 172 177 44  87  104 46  155 68  56  128 11  173 85  174 92  207 144 126 77  140 249 84  157 63  194 235 124 187 25  222 174 218 229 178 228 158 85  42  230 128 222 45  97  61  8   165 128 173 143 245 160 9   227 69  82  42  230 127 
127 66  245 121 246 107 251 224 122 180 33  199 166 133 135 223 98  19  251 177 8   34  146 68  142 222 109 16  104 105 70  186 32  92  182 198 136 30  160 222 184 148 26  150 59  206 254 57  179 241 90  133 87  179 9   220 6   67  113 253 142 226 12  8   104 224 105 1   102 110 162 230 25  200 184 146 163 48  72  128 232 117 36  199 134 176 131 210 118 130 115 209 65  35  75  150 186 59  56  32  58  127 
127 232 195 16  13  107 168 152 244 206 21  42  39  101 195 31  88  114 30  178 21  7   16  93  107 85  71  6   64  41  243 185 6   31  175 6   165 56  98  203 120 169 252 138 120 247 178 200 57  146 112 9   91  219 51  231 126 198 247 200 187 235 40  54  83  164 23  143 164 230 35  222 111 45  173 230 19  230 227 82  156 87  1   220 9   51  161 130 110 46  2   59  234 6   245 98  170 251 252 6   81  127 
127 230 167 97  207 142 1   245 161 22  9   133 141 20  16  70  175 11  77  200 177 253 214 249 74  108 62  98  42  178 71  246 130 4   36  161 217 138 148 133 164 231 243 10  118 179 18  15  9   26  59  94  183 34  35  59  78  6   200 188 130 88  119 223 124 99  108 41  7   128 77  242 59  148 100 248 31  50  185 204 192 74  78  7   26  128 248 184 33  237 251 34  147 13  192 58  100 101 172 99  169 127 
127 136 177 50  235 13  98  95  132 249 250 125 109 200 170 225 16  81  9   74  90  57  225 105 185 98  241 112 120 212 101 45  215 71  184 139 68  133 18  67  7   220 60  15  224 52  81  203 60  190 0   188 196 33  230 254 192 156 221 15  69  21  1   27  246 230 217 240 155 43  121 37  187 237 36  14  245 92  97  232 96  4   41  52  10  162 228 115 65  149 19  132 125 91  103 235 201 93  65  19  240 127 
127 132 142 44  14  234 28  134 96  46  220 234 102 78  53  169 205 178 218 225 86  192 241 104 223 207 13  114 184 209 216 112 5   184 183 127 195 130 62  188 55  234 162 109 121 166 22  175 239 252 5   184 114 217 54  43  126 103 206 217 112 246 77  252 106 230 44  148 144 81  95  143 71  91  40  185 107 211 13  80  39  156 140 243 84  62  209 72  197 228 142 149 95  103 150 153 165 109 28  170 92  127 
127 218 184 252 34  124 55  186 125 184 144 46  61  196 89  38  180 152 127 161 46  9   50  177 65  122 24  100 160 11  242 11  142 112 239 101 50  56  141 202 176 252 74  211 228 65  109 219 166 191 186 195 73  8   156 182 205 202 201 185 218 61  253 160 193 75  149 31  103 197 175 7   139 75  40  96  182 167 20  15  183 173 107 136 79  141 39  215 118 99  222 87  190 164 252 5   106 94  53  94  234 127 
127 222 143 198 54  0   74  5   177 57  185 190 1   85  185 22  84  19  8   69  185 9   157 106 185 90  240 243 235 130 177 1   234 159 162 231 132 187 91  206 126 63  82  188 215 154 52  69  10  110 37  99  162 40  160 110 47  233 60  28  231 84  7   150 218 115 182 5   82  12  217 110 130 229 1   137 109 186 210 224 177 8   135 118 239 41  88  135 76  80  37  235 19  98  173 238 78  125 20  101 210 127 
127 131 129 188 46  118 156 65  24  240 67  218 140 194 3   1   18  182 68  23  144 33  254 56  98  57  99  147 200 146 52  253 115 233 222 44  233 247 12  92  89  113 6   9   107 247 48  245 96  182 225 10  229 106 140 23  184 254 66  68  253 3   65  135 218 60  213 62  252 99  202 203 94  158 45  4   213 17  92  21  50  168 167 212 234 228 14  149 213 194 41  64  131 113 69  203 230 54  16  232 157 127 
127 103 127 205 66  105 12  196 250 202 203 19  192 156 174 219 85  174 245 223 194 254 78  96  175 64  119 137 82  24  174 94  147 52  63  120 20  209 240 188 108 209 6   209 131 16  223 234 214 179 232 116 88  21  46  159 42  218 40  139 151 147 191 161 249 9   220 150 31  53  126 67  161 54  37  209 18  143 64  196 225 121 2   169 23  36  14  244 59  212 71  121 103 135 240 61  208 71  35  169 42  127 
127 134 70  158 2   62  207 165 30  59  213 60  229 48  207 248 94  232 176 39  87  254 121 21  136 91  36  187 209 200 34  81  156 37  30  91  103 82  180 136 19  171 50  247 174 1   222 7   233 126 46  216 234 45  237 146 244 238 1   134 94  55  144 200 197 220 214 63  150 188 214 60  142 78  201 244 108 28  196 133 135 52  206 124 148 249 138 146 25  93  106 192 217 226 29  133 39  185 135 17  204 127 
127 225 158 127 176 245 138 167 73  185 245 193 172 110 104 171 230 65  93  151 158 132 85  68  20  97  241 130 175 47  39  169 30  237 173 63  36  134 166 116 126 32  10  18  73  47  209 217 31  198 4   41  38  88  48  227 179 123 92  212 132 23  145 162 109 52  203 80  104 27  134 73  184 84  7   22  136 62  210 39  75  14  20  190 23  22  143 218 217 184 180 200 87  13  232 197 69  1   231 49  245 127 
127 159 182 42  94  204 179 171 247 144 162 201 133 247 65  199 38  25  240 36  129 100 60  245 216 111 221 26  185 134 149 141 107 79  159 174 191 12  52  229 226 227 68  217 17  85  100 25  64  137 56  181 2   169 121 158 65  121 131 58  105 239 41  249 205 253 113 89  133 95  238 182 221 108 57  170 146 38  0   218 254 47  67  64  66  35  249 189 192 148 44  83  54  47  244 186 151 192 206 89  250 127 
127 158 179 41  225 36  88  39  76  212 187 235 213 138 98  108 188 9   194 154 75  104 145 231 155 213 169 7   35  217 43  153 171 104 137 35  29  211 208 66  212 32  53  89  111 58  211 57  43  254 89  138 10  218 208 73  235 217 235 213 28  171 153 128 60  122 253 193 26  228 112 160 76  216 189 239 116 128 55  45  130 100 9   228 31  31  173 72  239 143 43  137 43  9   103 49  58  32  25  29  134 127 
127 36  177 228 232 81  3   15  155 146 169 251 182 131 216 99  236 73  168 66  87  166 37  138 42  211 151 20  162 120 238 144 115 213 188 175 8   201 194 254 39  29  254 14  126 210 24  254 241 4   73  119 191 53  74  202 9   139 206 6   212 23  150 48  70  236 67  61  91  60  3   204 164 201 77  30  4   197 165 217 133 215 58  130 226 240 123 167 113 240 156 225 69  240 249 141 70  164 212 204 156 127 
127 83  49  149 109 189 240 6   253 214 120 211 36  245 176 103 144 28  16  193 236 62  213 112 241 40  96  222 44  52  78  134 12  251 10  80  77  49  46  82  248 64  210 148 80  146 26  50  113 158 251 206 215 109 87  219 239 5   150 119 190 60  126 180 83  33  246 244 164 48  215 2   221 230 251 108 195 163 204 232 8   203 175 41  126 7   28  122 108 127 27  51  239 215 139 222 39  72  199 135 129 127 
127 83  243 77  48  215 20  133 228 195 121 185 4   210 207 34  158 74  69  167 26  117 231 52  179 243 80  41  177 213 177 46  201 63  197 57  29  105 170 136 75  231 134 76  105 111 118 34  204 170 253 41  147 124 229 82  221 41  1   81  243 225 187 95  192 119 73  144 142 209 111 92  20  102 86  218 212 195 118 206 137 6   66  101 166 84  17  24  145 239 56  66  151 84  133 85  197 150 244 141 143 127 
127 127 127 127 127 127 127 127 127 127 127 127 127 127 127 127 127 127 127 127 127 127 127 127 127 127 127 127 127 127 127 127 127 127 127 127 127 127 127 127 127 127 127 127 127 127 127 127 127 127 127 127 127 127 127 127 127 127 127 127 127 127 127 127 127 127 127 127 127 127 127 127 127 127 127 127 127 127 127 127 127 127 127 127 127 127 127 127 127 127 127 127 127 127 127 127 127 127 127 127 127 127
