P2
102 102
255
127 127 127 127 127 127 127 127 127 127 127 127 127 127 127 127 127 127 127 127 127 127 127 127 127 127 127 127 127 127 127 127 127 127 127 127 127 127 127 127 127 127 127 127 127 127 127 127 127 127 127 127 127 127 127 127 127 127 127 127 127 127 127 127 127 127 127 127 127 127 127 127 127 127 127 127 127 127 127 127 127 127 127 127 127 127 127 127 127 127 127 127 127 127 127 127 127 127 127 127 127 127 
127 215 107 208 178 239 212 110 89  230 239 41  162 189 56  185 141 172 97  190 76  22  75  148 209 107 72  170 242 32  130 234 34  26  202 79  62  148 159 139 180 143 231 157 89  98  78  162 154 171 76  51  186 113 2   39  168 105 167 33  122 56  134 149 77  150 150 217 161 97  252 16  245 236 54  248 161 212 192 254 8   92  186 166 219 182 71  53  66  143 229 131 21  11  32  243 250 215 59  200 60  127 
127 166 72  119 179 182 235 123 239 230 70  72  223 172 250 143 170 23  199 139 75  111 217 71  39  143 100 10  84  188 225 135 55  53  61  123 5   116 139 184 70  124 214 75  153 123 10  189 177 66  180 210 94  169 94  157 7   171 252 99  181 199 151 3   46  58  184 83  174 1   21  14  111 175 14  183 78  222 21  49  220 130 45  7   226 159 93  112 105 237 54  74  54  197 193 144 112 232 158 47  174 127 
127 124 216 52  195 201 126 51  154 92  164 10  181 105 63  50  30  86  172 239 98  196 208 76  241 124 239 9   213 176 193 184 72  216 244 192 223 73  127 209 153 190 49  228 239 208 47  147 243 199 235 245 15  215 48  181 84  9   241 65  58  239 82  60  166 228 232 185 117 59  150 37  28  38  209 77  48  208 209 126 109 192 243 93  103 197 65  69  117 198 47  174 97  152 233 7   138 189 156 158 17  127 
127 94  172 100 108 121 80  176 4   65  113 250 106 124 213 103 220 237 32  186 52  131 183 145 218 96  117 163 112 232 151 227 204 13  53  123 252 72  233 39  7   108 228 94  139 248 77  166 190 98  123 184 236 226 55  247 147 23  206 132 204 141 106 233 231 32  223 146 54  166 219 8   183 157 164 150 85  66  179 69  211 91  153 55  190 153 49  190 119 202 53  68  59  1   14  230 8   75  139 40  21  127 
127 154 25  138 108 98  109 225 47  243 223 121 210 228 162 5   42  90  84  48  150 24  149 9   147 93  52  183 81  192 95  97  26  42  161 228 252 151 172 15  249 106 248 233 116 243 37  20  109 99  168 252 85  149 145 248 107 110 223 101 184 221 11  210 140 226 53  220 42  231 113 162 248 158 31  226 184 107 16  151 208 45  106 69  50  82  195 221 23  241 54  195 242 104 111 250 138 85  67  139 125 127 
127 118 227 180 224 141 215 22  220 131 53  65  93  106 230 113 228 92  242 32  20  160 90  109 145 223 203 59  109 202 82  21  128 91  223 252 132 60  86  114 246 9   40  237 160 70  171 57  42  85  197 90  241 222 156 140 88  88  144 114 181 52  113 232 94  2   146 202 78  40  175 51  166 228 135 30  108 83  193 213 124 160 143 72  202 125 219 221 242 110 207 109 59  119 90  45  39  244 149 75  10  127 
127 144 48  195 231 84  117 80  58  189 22  32  22  170 84  194 27  250 29  202 167 24  61  132 139 102 227 239 247 2   235 96  204 8   117 164 77  238 218 182 197 189 90  165 253 248 33  167 16  142 221 87  164 197 112 65  80  59  98  87  62  166 95  4   88  170 123 114 253 251 17  91  76  192 120 16  30  204 185 162 26  254 169 107 5   115 90  45  191 176 97  166 46  13  160 86  252 171 124 171 218 127 
127 77  162 146 194 246 186 90  108 45  114 34  142 204 154 65  241 97  99  83  235 167 68  235 31  24  246 92  190 235 162 133 113 223 143 88  51  126 183 131 132 195 141 92  75  92  44  146 125 207 91  62  221 97  131 35  55  221 10  108 57  247 96  94  88  160 12  158 248 219 65  222 67  153 8   252 132 91  130 120 157 144 85  238 139 127 128 251 208 107 81  117 96  23  230 26  95  228 233 184 85  127 
127 247 242 245 62  248 204 29  155 31  121 189 243 233 210 174 56  91  80  165 14  47  194 23  219 150 203 138 83  248 205 5   169 65  102 152 224 170 111 94  84  250 165 150 10  213 146 148 240 235 24  205 2   248 75  188 167 118 78  252 247 51  9   35  248 83  73  102 170 24  108 241 68  23  43  237 231 10  248 71  76  95  203 150 219 200 225 18  217 110 64  132 141 207 202 121 103 98  85  96  95  127 
127 212 153 29  19  45  157 50  80  177 116 232 186 195 250 156 168 81  180 106 175 209 254 211 97  197 193 102 175 65  4   186 170 164 214 222 91  48  16  5   230 252 137 127 67  63  249 80  99  186 94  29  165 112 173 131 80  151 153 110 141 127 184 226 197 12  147 148 44  165 138 202 6   107 47  215 62  161 130 110 125 34  89  0   113 187 42  52  158 133 214 65  16  193 194 144 6   172 31  64  173 127 
127 233 56  190 26  90  252 187 127 85  8   222 78  35  237 0   186 208 188 36  48  125 118 240 108 237 226 56  179 159 26  154 152 124 87  136 123 107 80  156 179 139 89  201 213 100 24  121 107 8   242 90  78  21  215 181 153 36  187 180 103 220 26  140 168 88  220 100 211 125 226 58  43  201 92  212 244 158 189 74  28  93  177 216 241 53  139 82  131 249 80  253 144 175 201 182 249 147 139 52  196 127 
127 174 141 99  210 165 61  106 155 31  112 1   159 113 93  6   31  206 17  114 71  99  113 174 67  41  178 210 116 217 250 245 238 123 172 154 187 46  39  151 95  211 160 191 71  66  47  17  177 212 214 8   110 118 110 180 132 59  48  239 240 201 197 154 195 140 58  227 39  242 196 25  50  36  82  234 72  190 146 60  35  77  20  97  141 135 253 81  81  72  140 66  233 153 181 136 175 145 8   91  251 127 
127 157 58  223 192 139 17  216 132 44  254 34  139 206 92  57  105 8   34  139 196 140 245 44  52  106 15  151 245 63  234 6   171 174 81  13  8   72  180 211 41  208 128 136 131 37  157 121 238 115 114 13  41  211 127 34  245 59  183 73  67  7   169 134 184 53  48  2   77  147 217 118 5   162 45  85  106 172 236 173 137 45  218 110 96  170 20  192 137 51  6   130 153 223 100 135 39  3   228 58  42  127 
127 54  98  14  182 253 37  226 176 160 8   94  56  230 136 189 9   166 70  178 81  21  50  144 114 174 181 5   35  101 105 19  38  147 201 196 247 237 136 195 192 208 218 24  30  5   176 175 46  69  228 112 154 189 236 212 79  126 125 131 112 126 253 249 205 129 254 69  6   115 223 251 239 15  108 190 209 90  34  88  162 88  218 75  251 137 99  191 91  208 188 91  42  95  25  241 160 18  67  19  120 127 
127 118 125 228 6   87  162 82  31  116 121 79  13  241 27  69  251 202 77  9   193 114 111 140 135 34  29  118 46  137 200 56  139 154 194 226 97  158 207 21  225 14  94  222 72  139 147 230 123 174 219 120 156 195 157 121 197 216 104 13  213 210 17  227 149 128 127 9   17  227 1   136 66  72  207 182 162 16  157 246 227 1   113 218 216 230 121 87  44  192 5   252 93  17  94  137 128 1   240 43  247 127 
127 89  220 135 97  96  28  194 199 42  56  29  244 97  176 11  83  206 38  148 250 72  175 161 59  82  53  135 68  196 133 82  234 100 211 243 75  246 72  130 190 82  250 46  211 233 31  141 185 208 238 109 91  69  88  221 248 193 192 143 63  73  18  196 203 16  180 170 61  16  20  98  121 93  112 43  194 106 78  176 121 138 242 154 220 122 244 90  94  5   1   53  167 168 132 108 116 227 136 242 133 127 
127 177 167 157 198 139 212 65  23  205 68  80  230 123 14  139 57  29  165 67  95  233 234 13  201 249 202 124 218 215 195 140 251 222 102 105 76  85  52  59  77  103 219 127 56  86  23  84  232 182 11  111 42  233 56  183 17  82  184 90  223 162 72  101 223 219 242 157 33  214 9   148 98  98  21  195 34  70  185 247 36  223 212 144 96  6   81  57  130 209 14  65  86  82  144 6   211 40  190 85  123 127 
127 63  246 129 201 33  157 190 160 6   17  155 77  233 50  225 247 213 79  120 96  1   87  244 135 222 188 216 153 114 185 212 209 85  184 239 194 115 103 108 24  136 33  149 128 225 184 71  190 96  197 235 247 253 35  79  107 198 237 162 27  5   152 20  158 131 122 73  43  45  193 153 9   22  114 193 243 98  201 152 160 41  66  67  201 202 72  21  32  163 153 33  226 117 174 113 223 32  195 158 214 127 
127 117 41  203 108 55  139 239 234 209 41  159 58  224 128 230 68  43  68  108 29  19  87  205 195 146 228 170 78  209 192 129 203 41  0   28  148 123 141 227 69  242 170 0   222 35  155 91  6   45  207 216 211 171 83  103 98  31  172 187 166 136 56  5   30  250 214 172 221 27  67  204 144 104 103 38  184 171 72  140 151 9   183 206 105 201 32  9   221 75  76  84  123 83  103 223 195 201 160 199 55  127 
127 109 220 100 158 2   35  77  13  189 54  116 226 43  50  67  222 29  221 120 50  30  224 169 27  188 98  167 38  36  33  119 207 24  112 224 27  174 122 69  119 232 143 122 190 105 23  149 208 239 244 154 133 13  89  241 175 95  198 170 47  117 170 137 21  114 0   28  13  60  214 71  189 124 220 192 240 9   156 205 193 189 168 88  185 45  120 206 118 23  40  187 194 107 103 18  212 161 97  233 69  127 
127 8   230 79  124 12  242 116 156 111 116 137 9   35  130 224 216 223 26  209 74  240 92  78  160 254 245 186 16  31  159 15  67  148 210 169 250 182 182 171 120 34  142 35  112 65  156 229 243 77  150 154 72  68  100 102 246 166 28  217 103 248 197 154 180 144 59  56  49  146 200 206 220 160 154 59  75  97  111 218 63  37  241 179 54  22  154 192 91  38  234 83  241 87  13  59  248 124 26  107 44  127 
127 81  103 154 129 109 126 88  44  136 151 59  128 215 157 70  198 236 183 0   162 2   228 236 192 165 149 69  77  102 98  106 82  103 57  159 49  179 179 130 204 130 189 45  64  6   245 130 36  174 82  73  166 79  248 132 175 220 131 136 174 103 92  72  47  147 161 186 54  253 146 170 62  102 162 224 218 81  231 18  235 243 56  49  111 248 193 160 224 120 247 49  86  100 119 176 209 165 10  121 187 127 
127 216 204 216 220 231 6   4   81  246 148 135 3   204 184 61  201 77  70  84  46  84  11  70  118 128 65  40  234 7   75  116 17  7   158 214 77  181 57  16  148 112 78  206 66  222 209 254 112 74  22  55  2   23  68  159 199 99  93  171 190 137 147 130 68  110 74  26  72  60  104 192 71  161 178 159 51  183 103 38  9   97  239 84  187 123 109 175 22  15  159 239 142 244 226 87  11  244 68  234 219 127 
127 128 88  180 130 236 205 81  133 98  98  10  130 31  163 34  38  216 211 162 171 46  199 228 33  106 182 167 40  91  134 91  33  134 28  91  19  81  10  131 217 101 24  37  137 28  253 189 7   37  199 249 11  183 131 246 132 73  31  147 238 20  130 30  113 188 196 22  4   154 190 154 164 60  172 199 218 154 174 246 251 181 32  70  169 97  206 174 148 146 111 147 55  184 65  188 26  180 78  20  55  127 
127 98  203 213 177 252 31  34  115 242 230 168 125 239 14  31  211 92  238 181 80  30  82  34  29  49  32  184 70  32  98  79  195 140 147 174 4   175 105 210 66  63  236 92  87  227 189 166 148 232 132 104 192 148 68  101 32  233 82  67  31  25  16  19  167 131 239 16  94  145 103 43  81  150 18  4   182 194 56  33  46  103 145 223 29  238 31  104 229 202 142 221 71  103 45  20  136 138 77  102 146 127 
127 164 37  215 104 184 113 241 72  236 150 135 215 59  216 234 172 30  248 57  243 14  62  211 14  88  120 197 243 43  177 57  1   50  4   17  19  185 122 53  5   136 110 131 94  138 32  113 209 209 196 42  183 224 204 111 164 171 251 133 57  109 137 48  146 231 154 229 82  223 56  77  162 164 222 251 149 39  88  49  16  247 135 88  90  84  226 201 80  128 79  252 246 185 50  149 185 162 122 119 231 127 
127 194 200 6   12  252 185 244 32  91  169 74  51  167 67  57  159 172 64  55  238 2   138 181 182 178 183 197 235 79  65  17  224 164 38  199 107 116 120 251 240 145 173 73  122 128 213 248 170 141 46  156 124 235 240 127 77  65  195 75  49  175 184 117 161 233 180 197 242 129 79  124 109 242 251 36  11  146 215 130 102 164 79  168 120 219 135 101 112 218 241 246 45  118 70  217 28  125 234 98  7   127 
127 134 75  222 249 221 19  159 184 161 197 7   251 3   8   0   90  249 129 188 71  30  202 246 227 57  111 231 33  173 173 238 232 8   118 156 186 116 45  190 185 113 237 150 160 239 168 11  35  177 141 179 190 132 72  179 241 45  217 75  190 126 117 173 82  142 100 222 197 196 93  18  159 138 185 80  199 148 104 215 88  81  5   148 239 54  46  82  61  162 106 202 208 202 87  169 102 34  134 235 199 127 
127 122 197 31  6   251 105 87  220 41  33  65  131 168 208 55  183 233 217 221 127 4   87  216 217 106 49  57  196 27  209 136 95  189 138 205 208 78  227 184 133 110 132 34  228 57  234 246 234 57  172 218 52  92  7   138 71  83  163 111 15  245 33  249 88  220 58  147 151 60  185 223 194 39  5   254 155 105 152 36  151 172 111 246 228 91  85  84  37  52  200 154 132 124 105 106 88  136 102 223 179 127 
127 159 45  125 37  51  154 173 211 151 129 242 40  88  86  53  42  200 126 94  8   146 186 29  198 129 198 125 0   216 106 22  62  160 219 98  236 224 235 146 105 175 151 31  184 74  98  109 155 185 15  91  32  0   150 116 181 48  7   65  253 63  71  92  22  90  66  214 168 202 120 153 25  215 207 60  0   47  221 133 177 118 76  177 217 52  113 220 78  95  131 235 205 128 182 251 66  93  117 132 66  127 
127 253 61  242 68  169 164 166 102 121 47  224 158 3   169 191 246 84  77  193 79  90  183 28  131 239 192 129 106 206 102 181 166 237 6   224 208 0   242 91  192 133 30  149 229 83  242 6   199 68  254 128 23  13  171 219 181 162 106 19  156 247 36  223 77  23  254 209 205 123 161 65  187 224 208 208 106 179 124 214 108 39  226 221 140 133 179 225 185 74  198 84  153 117 80  151 150 132 18  223 114 127 
127 41  61  74  221 131 101 138 58  203 77  252 125 20  154 228 17  141 206 161 35  171 179 61  55  211 124 121 174 64  57  176 142 243 205 100 22  212 162 19  44  110 111 0   209 29  192 176 195 99  238 220 142 43  122 192 54  81  115 121 70  6   27  13  17  202 238 97  181 10  219 216 85  19  48  194 216 218 219 45  15  71  251 213 236 62  171 54  81  36  49  84  13  88  39  137 217 142 214 62  70  127 
127 231 72  168 194 119 107 88  176 22  57  106 115 249 20  195 16  2   36  78  46  54  235 109 66  43  37  159 159 152 45  105 188 240 114 126 95  150 158 248 227 19  111 87  167 30  2   109 79  86  82  25  228 13  106 26  133 13  59  96  9   109 97  217 238 130 186 167 2   216 21  111 123 235 149 169 37  185 243 71  31  216 193 47  235 228 86  82  135 152 62  115 92  160 28  231 179 202 247 238 4   127 
127 65  223 225 134 225 26  43  220 33  15  233 128 73  176 94  194 31  67  102 50  143 82  29  60  222 252 31  218 247 251 80  6   189 38  20  35  0   20  91  181 81  186 139 52  48  232 76  166 237 228 128 91  52  248 192 38  23  222 43  54  159 57  195 6   98  105 80  190 142 111 29  24  134 140 101 106 151 166 146 195 244 217 77  126 6   224 58  13  74  206 184 16  236 9   26  208 85  99  248 52  127 
127 44  50  15  220 53  101 155 243 60  190 128 117 148 46  187 156 210 3   106 151 231 66  40  27  233 113 196 155 192 157 136 26  101 153 89  202 61  211 249 128 37  169 142 249 197 130 135 95  112 24  222 193 165 56  59  223 97  1   133 244 72  79  202 115 4   97  37  15  110 108 92  102 139 98  24  108 43  231 198 140 157 188 32  233 21  237 88  61  24  5   84  237 137 43  230 208 91  162 92  191 127 
127 152 241 95  228 44  93  183 180 214 72  243 158 93  128 131 58  239 194 94  34  71  191 129 245 176 114 13  3   8   216 196 183 155 185 215 58  18  120 112 236 8   213 39  52  93  113 124 141 90  110 126 171 253 37  239 69  41  104 245 53  6   43  134 156 1   200 105 108 245 48  180 57  236 136 154 235 193 127 207 133 221 6   31  174 19  176 177 166 65  55  163 216 59  9   43  235 146 170 115 214 127 
127 148 80  205 154 219 160 81  153 135 167 230 23  148 58  120 144 244 10  141 134 45  158 251 191 55  57  175 166 110 168 78  170 207 96  15  214 15  111 10  235 77  111 209 157 82  221 52  227 151 188 134 151 101 87  236 193 196 235 253 139 132 76  242 190 43  230 197 253 225 81  154 100 250 80  143 164 161 206 125 212 24  17  150 100 191 163 127 111 14  206 247 13  102 227 31  157 209 113 114 61  127 
127 231 66  157 61  204 253 129 20  157 219 104 170 130 253 244 221 118 249 44  207 159 115 54  25  144 71  201 141 105 81  199 74  80  99  216 44  94  245 55  30  184 28  102 132 55  227 97  78  207 228 65  35  102 232 220 27  34  116 62  180 133 43  35  244 134 246 159 194 66  88  104 17  98  199 143 23  112 178 23  60  55  193 4   146 229 193 21  52  105 115 211 195 41  232 121 58  15  226 55  180 127 
127 22  199 253 88  83  187 177 34  81  119 139 214 100 8   228 21  141 54  52  169 17  100 65  248 147 95  50  186 165 142 218 59  54  170 181 166 21  228 148 68  95  162 143 132 213 27  198 206 35  28  206 250 207 150 26  66  217 102 81  159 179 142 108 210 215 30  179 65  84  248 180 158 212 84  76  4   100 213 240 111 243 37  92  224 154 213 201 147 212 123 144 49  110 213 100 220 46  91  196 150 127 
127 39  99  149 70  147 66  157 41  47  198 160 238 2   15  150 218 198 10  68  126 110 177 233 116 55  175 223 91  248 94  197 169 45  159 96  164 148 145 142 154 66  82  248 185 206 220 172 214 74  166 74  47  88  95  200 99  83  227 191 153 18  126 13  243 130 93  156 7   170 56  112 52  7   109 18  177 216 62  60  63  41  64  133 22  101 0   159 246 167 200 197 147 96  224 6   182 204 80  244 222 127 
127 16  139 199 176 66  58  80  3   161 169 21  139 14  144 247 94  4   109 35  76  243 201 85  170 103 84  16  185 114 124 21  40  123 244 16  97  35  252 173 38  252 236 17  223 242 163 237 214 23  190 105 223 1   98  223 31  94  248 14  168 235 190 205 249 189 104 53  16  129 63  251 243 32  38  35  228 118 69  239 133 83  49  146 115 15  44  199 28  105 113 197 246 87  218 48  81  4   193 32  96  127 
127 68  239 8   79  168 178 116 6   155 111 246 171 159 237 254 164 54  4   251 11  202 111 195 102 12  225 241 90  87  97  76  243 245 28  2   77  65  193 141 26  179 248 228 236 81  236 175 213 144 77  117 21  178 112 91  218 59  107 220 18  2   130 61  13  77  112 80  46  19  158 57  52  168 75  82  105 185 187 70  212 216 11  39  135 142 4   250 241 50  222 81  143 143 184 201 31  136 39  191 158 127 
127 138 203 144 57  177 252 187 106 230 125 102 174 35  83  147 64  74  89  37  248 6   219 56  196 31  43  149 132 190 170 37  204 247 166 110 80  75  71  131 88  5   222 20  8   149 128 158 134 41  106 40  194 246 172 203 120 229 197 21  129 129 28  171 108 132 123 70  212 253 19  227 156 153 120 140 16  88  227 131 232 129 16  253 186 104 199 17  113 124 105 154 204 91  173 2   232 86  167 57  171 127 
127 140 163 142 252 181 202 60  250 163 210 154 133 105 160 234 249 118 201 104 197 227 37  131 110 201 131 177 11  144 205 173 2   192 131 73  253 142 4   69  238 104 42  213 70  149 241 54  194 28  212 68  73  247 154 117 2   87  174 22  239 99  74  50  145 8   106 149 123 17  218 251 27  190 220 25  220 11  24  233 66  33  155 22  250 227 9   15  232 73  88  237 149 18  235 14  73  143 67  12  40  127 
127 111 133 177 2   143 184 234 44  88  84  251 75  56  50  130 144 231 38  58  238 222 163 172 199 157 32  21  38  175 147 104 217 238 158 132 79  234 46  30  81  109 176 147 43  138 43  152 247 96  179 126 74  81  183 201 223 48  111 104 188 15  154 72  138 42  233 246 200 8   108 228 26  221 52  216 238 142 234 120 54  105 2   175 3   166 155 23  251 153 76  215 181 122 243 203 240 254 241 25  29  127 
127 26  166 200 55  138 213 26  36  224 137 246 62  201 1   53  253 140 55  253 185 77  70  207 87  222 185 18  40  56  116 252 24  205 60  116 86  59  132 100 113 115 118 51  23  35  218 179 7   248 169 148 138 249 54  160 88  137 79  35  42  78  29  173 223 194 111 229 129 100 243 111 117 208 17  135 239 79  51  141 254 157 2   195 189 76  136 90  16  29  211 18  123 210 95  194 102 41  63  251 111 127 
127 101 6   80  159 235 20  58  97  154 125 213 205 167 160 191 72  98  64  25  124 174 5   124 6   220 132 104 192 97  16  38  161 91  151 119 123 2   196 246 76  170 60  37  217 185 93  246 197 151 35  40  144 213 94  124 251 215 150 145 57  181 225 76  92  21  78  122 30  143 120 221 54  98  14  152 79  147 87  143 122 142 151 92  180 232 85  176 214 179 99  60  246 64  102 183 41  183 171 211 93  127 
127 157 222 153 99  170 78  47  18  162 78  14  253 148 54  192 218 162 7   37  61  65  19  134 238 248 223 16  130 62  195 168 17  14  225 147 95  96  249 241 197 219 1   58  71  241 44  95  155 13  251 82  208 131 80  105 22  24  140 246 39  147 222 237 187 83  81  35  179 161 119 117 5   1   150 26  60  200 252 75  193 40  248 143 77  103 241 9   123 227 94  224 9   107 112 28  11  160 234 103 24  127 
127 89  97  92  200 74  244 209 49  95  169 47  26  20  91  62  166 216 175 230 133 86  185 210 192 65  9   121 155 41  102 31  15  113 60  148 229 151 109 153 249 242 166 40  177 237 201 218 96  154 90  97  116 148 192 17  100 190 40  169 73  166 0   236 131 90  108 120 107 196 241 66  144 189 248 237 90  176 203 23  53  46  226 131 106 47  211 15  40  210 143 190 10  159 194 129 221 155 12  195 29  127 
127 47  191 11  11  101 248 58  73  143 70  97  118 243 209 85  96  149 119 99  128 211 162 140 67  84  136 98  14  131 194 133 109 158 189 194 128 199 0   108 113 39  120 85  148 29  103 213 26  21  209 38  201 209 157 105 91  101 207 16  239 23  133 225 99  45  133 226 156 117 79  165 202 217 34  90  39  121 97  1   9   174 220 58  253 16  233 173 118 170 40  186 210 87  71  173 225 149 164 237 218 127 
127 166 105 212 146 46  223 102 211 66  113 34  3   200 225 0   17  56  176 16  231 90  221 214 51  41  100 174 94  106 139 179 108 39  84  188 44  186 140 190 96  27  142 224 247 226 107 214 56  82  145 37  219 201 39  132 38  167 31  87  138 81  135 43  39  78  66  210 99  225 219 110 187 19  85  167 2   50  124 165 143 18  119 165 221 194 74  113 252 150 165 231 147 229 210 105 219 233 98  48  115 127 
127 11  127 121 183 43  3   95  136 92  45  114 156 183 72  80  144 46  52  67  108 73  54  188 164 207 147 53  249 140 138 179 148 225 228 16  72  30  184 152 169 48  171 201 173 158 233 99  143 163 31  200 104 231 119 128 68  185 113 75  54  13  241 250 17  247 173 243 93  147 17  80  122 160 233 193 139 246 154 1   70  147 200 191 25  86  29  129 14  57  195 116 37  42  19  34  51  168 242 126 203 127 
127 56  216 55  145 147 198 91  40  98  102 239 240 151 183 75  72  200 242 188 203 143 14  219 204 205 120 39  178 169 139 73  212 169 109 2   198 130 217 102 81  142 77  143 42  197 227 63  125 219 5   217 204 251 111 2   76  65  251 79  191 146 217 183 22  247 39  157 227 168 179 112 240 79  57  110 16  248 45  156 248 22  27  200 169 174 120 19  136 11  3   23  213 177 117 252 152 68  34  180 218 127 
127 57  57  204 176 222 173 124 187 61  215 251 4   128 169 168 78  231 138 164 231 74  213 117 80  32  162 79  18  130 185 245 105 234 71  139 201 33  247 231 253 40  217 252 162 4   8   192 140 28  75  95  126 16  113 118 181 33  22  125 249 112 48  206 236 71  237 79  131 153 104 117 174 174 181 141 98  13  229 171 124 13  245 50  203 36  219 83  138 95  226 76  72  217 235 92  212 46  212 160 135 127 
127 48  185 254 58  224 168 189 60  211 211 70  78  117 49  197 53  121 47  143 50  226 83  128 73  109 223 32  222 174 97  36  33  59  203 22  240 142 170 137 26  107 96  222 50  170 17  133 124 221 66  252 163 209 80  246 173 26  164 79  60  197 126 129 194 249 100 56  221 11  193 79  192 127 189 241 125 73  184 173 58  128 250 2   31  188 107 171 208 71  85  138 76  133 84  129 145 138 112 192 245 127 
127 39  138 67  90  70  196 57  90  114 167 244 171 32  193 98  95  205 18  251 247 120 200 132 202 226 159 96  12  30  99  58  190 98  117 64  176 133 196 82  2   94  104 73  155 157 156 118 60  137 237 33  56  116 13  232 87  13  187 142 115 177 96  34  94  170 43  71  42  188 221 161 73  169 21  183 26  79  147 205 120 153 85  99  247 18  34  26  114 203 177 198 238 252 61  207 82  16  0   130 74  127 
127 131 253 141 189 174 57  151 66  96  20  234 169 106 37  252 220 147 212 1   214 182 219 237 152 247 142 111 147 226 201 223 188 56  239 126 158 140 223 243 216 218 132 250 129 135 25  168 145 194 207 253 44  68  186 58  217 175 187 44  137 228 120 212 35  230 142 23  37  124 73  41  205 221 133 36  27  104 76  247 137 25  31  136 66  217 189 101 56  204 168 130 175 88  220 199 139 218 198 165 196 127 
127 74  222 196 78  137 56  187 82  64  27  241 234 7   230 113 225 137 108 50  150 14  35  19  57  90  183 86  206 176 102 187 57  99  240 23  8   178 239 176 206 217 12  132 143 235 13  241 238 161 162 195 56  139 76  172 161 252 183 228 198 75  211 206 239 89  132 152 73  231 22  13  118 28  156 43  134 146 17  211 211 240 166 113 99  225 73  141 174 164 5   11  163 232 90  18  70  60  232 57  99  127 
127 33  190 34  88  21  77  235 25  1   71  253 114 214 68  93  224 175 46  105 245 65  250 143 182 138 90  66  119 221 222 190 21  21  246 128 180 139 163 32  97  14  231 62  31  120 12  115 92  27  189 155 183 215 246 108 253 200 128 162 50  249 8   22  172 19  205 236 48  151 189 54  142 254 22  11  204 227 131 237 44  169 10  54  92  24  134 140 3   128 61  189 159 57  156 9   131 31  75  125 51  127 
127 119 154 132 160 108 69  67  204 190 0   142 123 197 19  36  144 91  176 126 65  139 111 124 167 90  5   223 76  252 159 1   115 107 153 209 137 113 135 234 133 139 138 192 198 235 148 76  165 226 252 206 198 53  137 50  193 79  132 126 220 178 178 138 19  242 214 76  93  161 253 6   236 103 26  189 171 31  37  19  115 88  35  158 220 28  201 81  44  222 250 243 193 187 24  48  213 139 227 212 32  127 
127 82  200 177 94  151 135 182 249 231 156 248 252 33  11  88  156 38  80  182 195 24  143 76  246 247 167 188 209 149 48  24  153 231 203 168 163 56  69  189 109 44  92  111 200 193 78  33  205 135 4   133 166 54  246 133 5   213 245 235 0   19  61  145 242 1   254 248 159 147 126 87  38  156 40  54  235 208 50  232 49  209 203 215 85  94  224 105 63  37  232 233 0   179 211 13  60  55  95  207 214 127 
127 63  64  192 9   66  155 124 156 221 130 118 37  34  25  148 124 168 49  151 4   135 186 241 234 35  22  225 164 116 247 8   145 230 207 88  14  42  243 214 161 2   74  168 232 8   220 11  29  230 203 30  212 179 192 93  58  117 157 207 240 29  68  151 117 81  116 43  184 200 195 219 224 222 202 97  226 229 92  227 178 200 0   204 211 140 23  76  112 211 54  84  16  245 110 154 107 164 14  126 187 127 
127 48  42  129 4   50  230 10  208 191 54  187 116 14  135 27  77  39  36  109 89  190 53  146 36  70  8   87  25  15  166 244 42  199 31  45  138 20  106 199 249 159 33  142 182 145 35  173 87  82  6   74  33  171 96  208 56  108 194 73  154 51  22  192 177 228 236 163 68  155 31  180 57  102 30  209 65  133 155 198 90  6   235 177 85  49  112 130 99  91  245 74  231 233 113 44  18  202 146 48  38  127 
127 184 88  156 128 242 218 98  195 250 253 93  180 17  166 139 178 191 219 34  10  136 9   93  57  93  218 253 63  140 96  104 183 121 58  166 104 132 118 243 59  157 194 2   6   247 3   212 61  94  161 23  143 139 217 108 135 225 166 92  205 110 106 155 72  122 91  78  227 167 15  136 120 150 169 129 163 254 233 17  74  118 210 70  85  42  182 87  31  169 150 246 119 163 69  237 245 234 223 144 213 127 
127 79  200 113 74  102 162 119 174 49  133 223 148 85  88  95  251 201 176 99  179 56  41  39  38  39  136 221 45  236 116 195 252 145 37  4   192 228 236 118 116 117 0   117 226 194 176 36  112 182 6   37  82  102 203 9   213 151 135 184 202 119 184 222 96  118 7   227 91  244 130 29  50  138 119 216 117 26  160 179 234 196 122 77  78  13  155 132 148 226 98  79  103 98  190 102 245 246 47  87  224 127 
127 169 68  0   77  64  249 227 174 197 184 114 178 48  8   97  162 28  238 27  90  72  159 17  117 113 95  237 168 79  2   79  112 140 225 82  182 70  36  181 228 216 102 11  230 117 102 232 139 237 209 96  145 239 180 95  39  56  1   173 248 133 68  147 152 242 209 169 175 206 243 88  105 95  48  6   139 228 175 84  10  104 246 154 96  103 244 201 83  214 55  98  30  72  28  203 64  93  161 59  24  127 
127 86  100 32  75  74  48  86  245 210 150 237 211 196 249 120 87  123 75  42  238 42  125 35  121 59  239 157 43  148 23  148 144 135 97  40  220 126 135 42  78  199 69  93  35  75  179 5   75  123 154 178 6   45  48  234 24  24  115 130 194 134 10  22  117 184 70  59  248 53  27  4   45  69  146 71  242 129 16  174 222 239 47  115 239 173 125 153 207 2   3   198 204 243 59  189 192 155 144 206 108 127 
127 65  138 239 21  204 240 104 55  80  181 232 25  29  237 223 196 159 88  95  55  224 26  155 3   121 86  228 155 206 73  63  134 183 36  2   247 222 226 26  192 83  172 61  149 46  202 161 2   228 39  130 127 232 144 163 77  31  228 158 30  16  149 238 193 26  23  100 89  85  6   241 254 169 201 21  111 134 50  248 165 57  11  10  160 6   104 86  11  167 252 114 60  205 201 23  54  136 73  3   168 127 
127 71  92  121 173 151 146 24  184 152 9   244 92  220 198 160 157 130 60  188 210 239 21  143 164 172 142 164 212 236 23  103 209 175 65  173 28  46  92  180 66  12  94  188 141 42  236 90  213 130 208 58  132 46  40  227 69  149 252 49  12  139 162 108 75  69  212 191 232 149 43  48  198 110 206 5   177 47  119 130 230 148 162 203 247 82  56  238 164 120 179 170 105 112 119 179 22  43  82  160 179 127 
127 34  43  70  202 250 241 154 129 241 89  14  73  42  138 155 115 134 44  37  66  43  34  235 43  248 57  245 244 212 160 27  139 105 201 99  10  155 175 43  27  97  59  141 44  12  136 61  36  128 144 85  205 124 211 179 130 248 123 73  157 208 50  74  106 249 100 75  66  101 39  96  62  29  59  189 114 181 248 175 127 185 250 204 222 173 166 101 195 249 159 51  72  107 157 90  34  183 42  15  18  127 
127 106 39  84  8   69  97  110 113 160 82  226 197 70  123 249 200 162 233 54  160 244 80  98  154 135 89  22  97  106 104 197 216 125 20  16  139 19  196 249 211 166 71  2   208 59  135 33  31  127 173 233 239 112 40  111 160 132 47  71  170 73  223 238 100 53  179 76  44  180 129 81  60  102 19  123 49  75  50  108 94  169 207 184 14  81  147 179 47  75  200 91  142 192 61  13  221 10  98  171 230 127 
127 2   85  0   132 124 109 252 218 113 160 105 234 136 235 191 230 2   134 208 2   180 129 198 37  41  108 250 187 166 109 213 55  70  143 203 192 3   52  173 183 214 196 215 87  221 154 117 65  146 136 99  59  64  228 127 32  29  42  28  206 252 98  240 227 117 61  107 243 157 244 209 207 10  152 49  213 134 252 221 86  3   224 194 117 10  51  54  128 178 194 54  111 44  234 92  18  139 207 126 99  127 
127 12  192 80  221 182 68  237 96  47  216 231 236 237 29  94  81  205 8   175 125 60  10  42  250 17  64  116 199 69  208 116 105 145 188 13  94  87  42  225 54  84  160 0   135 92  67  214 22  210 96  104 133 54  157 48  102 1   168 37  160 228 85  159 218 152 174 84  28  153 253 67  168 198 159 221 111 216 52  139 71  165 128 57  58  13  247 158 239 167 173 42  162 62  50  65  163 37  60  30  141 127 
127 177 214 219 108 11  189 238 238 148 172 246 24  208 214 206 117 69  134 199 90  30  100 212 240 43  244 163 243 190 26  138 194 54  1   77  44  206 212 153 29  25  66  123 142 93  124 146 109 153 123 36  9   237 75  0   77  214 140 34  155 121 194 104 137 249 159 98  198 226 217 49  178 109 15  16  106 121 240 184 64  54  134 228 235 186 7   251 79  85  84  190 75  71  118 19  194 242 228 241 251 127 
127 164 79  25  101 177 47  210 94  19  208 155 202 56  194 53  142 29  214 48  90  245 9   95  64  77  243 89  211 201 115 9   143 147 18  253 3   81  115 41  217 211 186 66  27  127 193 234 101 109 68  63  22  174 246 77  169 83  79  79  87  83  14  33  24  70  86  89  114 6   149 150 117 90  219 228 46  3   209 10  15  161 141 225 95  197 61  145 161 45  241 103 165 92  68  189 110 111 182 87  59  127 
127 14  212 59  231 80  49  250 49  170 206 37  35  148 65  241 101 6   86  13  6   115 202 106 123 205 215 226 137 48  27  253 127 23  71  111 56  59  7   180 200 130 120 247 148 130 167 139 223 88  125 42  96  110 26  160 2   224 228 49  182 132 68  224 105 167 17  83  71  144 154 160 174 113 181 194 103 38  179 44  246 21  92  214 222 96  242 113 222 69  59  92  170 170 64  139 7   155 189 188 53  127 
127 204 122 126 124 73  40  17  222 230 238 178 110 15  193 38  68  211 139 207 205 208 27  126 158 117 141 56  208 133 20  63  83  206 118 247 184 238 171 131 136 140 213 110 14  239 85  49  248 152 249 15  91  60  34  6   200 29  179 252 143 154 210 68  40  152 110 138 92  44  61  132 32  182 60  240 251 13  179 82  137 178 72  120 7   126 139 91  89  219 33  100 180 162 120 248 60  175 234 133 219 127 
127 69  98  111 14  173 116 3   57  71  246 16  160 109 157 51  81  61  207 113 249 105 140 78  198 211 227 166 253 109 97  113 116 104 182 126 174 213 9   182 110 68  201 52  90  26  67  202 238 177 194 13  205 187 97  93  179 216 231 250 175 179 175 186 103 159 249 81  233 250 54  209 175 193 20  143 134 199 29  213 76  9   215 105 30  105 115 153 67  113 115 209 159 50  120 245 142 12  105 131 144 127 
127 55  223 220 134 48  171 80  247 23  65  55  193 145 200 15  94  20  203 23  155 3   164 71  140 104 199 83  241 17  85  23  192 167 119 148 97  15  71  87  182 177 20  99  234 29  239 169 21  243 108 84  124 46  22  77  251 1   95  115 143 63  32  231 149 29  192 43  139 182 149 202 185 253 230 190 93  83  66  15  24  54  173 114 22  54  137 153 130 184 100 60  42  155 204 250 229 116 71  40  198 127 
127 191 186 74  243 3   212 28  43  199 113 146 78  71  163 169 41  22  196 125 189 108 119 237 80  80  210 28  69  109 45  174 220 150 218 182 75  225 97  27  224 117 169 228 169 52  31  137 94  159 54  136 47  160 150 247 130 58  180 119 40  144 69  69  149 235 75  4   59  192 22  254 219 33  180 164 249 126 6   151 94  29  85  127 33  190 84  43  172 118 64  242 97  212 145 94  166 155 247 232 92  127 
127 81  191 239 35  131 56  158 232 92  150 108 234 59  125 87  39  63  218 9   76  98  93  212 43  119 161 91  160 37  23  82  219 52  209 15  127 254 41  217 97  114 233 158 193 93  157 38  82  138 243 67  103 6   204 155 228 229 146 104 164 225 209 112 100 74  150 39  134 68  193 220 73  44  252 139 182 244 210 9   98  235 150 7   246 202 45  187 32  9   49  117 95  114 208 107 131 59  34  146 142 127 
127 135 186 66  223 173 225 250 232 206 248 252 72  242 213 56  151 214 184 226 191 6   16  62  126 105 252 245 159 100 35  55  184 106 220 101 57  153 200 158 154 27  200 56  175 149 149 234 144 27  252 11  72  219 216 14  221 102 238 197 150 205 131 214 104 219 41  247 66  55  169 232 35  227 163 103 97  29  72  173 157 204 38  147 78  221 33  54  38  13  32  185 5   193 204 15  173 140 85  151 251 127 
127 246 241 23  162 61  78  159 207 86  133 188 245 99  32  73  204 239 200 51  135 227 105 132 245 229 244 101 71  144 32  147 208 8   230 187 8   158 52  96  13  2   68  162 139 3   195 244 28  138 147 38  156 104 158 86  196 9   27  75  59  174 66  239 161 23  29  44  95  230 18  94  240 61  202 16  52  187 190 138 41  241 60  92  103 168 219 173 203 143 207 82  185 48  186 53  185 224 249 161 53  127 
127 55  172 148 43  106 31  90  37  7   252 32  23  98  243 41  169 240 159 42  95  33  6   12  189 104 4   204 63  226 233 184 33  159 138 66  186 194 149 72  61  195 238 184 207 188 93  3   123 246 109 241 247 158 58  61  77  111 71  32  122 44  174 13  44  51  62  120 233 198 14  246 186 78  234 206 166 243 132 220 96  166 68  215 70  83  178 12  14  37  35  20  73  123 100 219 195 192 87  145 236 127 
127 77  140 195 15  72  146 87  191 96  135 159 116 9   84  31  219 152 123 183 251 24  184 32  248 82  25  128 174 181 127 250 156 122 75  254 231 139 60  206 136 16  111 49  117 124 23  7   12  41  105 174 244 167 156 193 243 35  190 220 240 133 209 114 105 70  120 51  229 249 173 3   67  186 47  145 75  132 253 177 237 73  162 137 179 192 244 184 159 149 191 75  243 132 34  16  227 44  49  108 148 127 
127 252 77  119 221 23  233 171 142 44  194 28  240 137 254 99  126 210 113 19  87  74  67  123 219 221 228 160 68  250 124 141 27  34  170 56  22  249 45  134 31  93  186 54  131 248 69  86  230 72  100 74  184 138 188 164 209 60  91  230 89  58  192 90  191 239 126 85  128 121 166 206 123 186 50  183 55  133 57  250 222 211 129 150 25  244 227 148 132 146 165 248 242 213 21  219 24  83  233 246 11  127 
127 196 101 5   93  86  62  224 222 19  62  232 85  165 54  157 62  140 113 158 43  46  250 81  214 40  175 34  3   160 192 214 252 90  80  243 162 245 231 210 173 48  104 26  118 0   173 235 239 206 243 204 155 144 12  157 96  40  213 232 177 57  117 101 33  91  173 8   70  40  87  28  163 54  224 124 99  243 54  154 157 199 211 238 29  199 236 136 131 192 57  83  78  209 175 55  25  243 132 99  175 127 
127 24  196 226 22  98  61  71  178 107 60  11  253 248 62  128 62  230 239 1   111 176 207 237 200 154 88  107 166 142 119 47  3   111 224 175 138 178 15  146 85  146 47  185 25  112 179 161 182 96  145 157 38  44  76  194 162 171 9   92  10  180 199 42  119 202 79  218 21  96  124 185 46  76  128 181 209 252 117 115 103 172 168 226 144 213 28  135 170 56  215 17  178 68  235 203 81  191 91  110 155 127 
127 174 138 183 102 188 56  158 236 201 80  134 105 248 158 103 188 1   168 50  94  4   205 131 224 237 63  47  23  36  159 164 253 89  186 107 139 177 109 200 57  54  225 49  67  99  151 245 176 241 235 223 41  134 214 244 188 62  235 243 124 200 98  5   195 142 176 221 181 39  106 248 163 199 93  207 110 72  178 243 160 220 76  226 122 69  220 14  133 197 161 23  136 151 9   105 194 177 92  34  249 127 
127 23  91  13  177 196 29  26  150 62  242 164 252 123 236 140 97  206 126 159 99  58  244 40  98  44  29  192 42  207 54  16  181 176 186 27  105 248 5   235 226 23  159 117 202 152 251 243 135 65  170 21  12  206 139 211 136 35  121 79  56  160 235 155 238 197 237 99  69  193 162 244 54  175 13  79  157 48  223 179 4   30  85  73  14  35  250 145 230 60  247 238 213 212 70  59  3   152 53  5   72  127 
127 170 244 42  52  133 76  119 237 52  214 218 36  232 176 83  112 241 73  157 221 6   152 169 203 23  78  216 192 129 11  198 225 61  139 6   254 240 228 211 211 9   146 74  179 33  86  149 177 26  9   4   135 85  69  45  202 150 205 12  98  155 202 1   94  21  150 37  196 153 90  125 88  220 5   4   202 47  133 109 166 2   82  16  87  123 203 49  194 1   172 227 90  105 160 122 15  58  89  211 170 127 
127 189 254 81  88  63  177 50  57  162 39  124 244 243 93  90  205 53  98  233 216 117 79  167 158 24  194 178 168 187 36  195 227 26  217 183 137 243 138 24  65  74  123 112 89  223 248 37  82  52  249 58  205 19  38  220 18  197 217 13  190 192 70  74  217 32  197 179 229 72  166 205 2   251 38  106 171 248 107 65  30  117 24  46  254 101 81  20  125 139 207 228 214 36  125 62  124 54  146 238 235 127 
127 147 151 235 109 20  35  20  51  152 83  2   230 192 173 192 186 49  177 194 75  183 45  195 21  108 233 238 93  0   187 164 202 126 169 82  116 25  230 3   74  191 58  95  186 162 213 161 211 121 189 40  229 213 212 35  253 173 72  43  200 46  203 155 77  121 150 152 152 163 252 231 97  53  254 8   138 28  99  81  130 113 34  75  211 132 19  204 184 122 23  143 21  173 25  223 37  17  182 94  2   127 
127 181 5   228 57  43  62  168 194 41  87  121 181 32  246 171 188 105 63  128 10  127 194 82  129 99  57  12  29  16  7   104 30  135 124 139 106 222 143 14  7   70  169 138 219 144 177 3   39  225 72  222 47  59  73  44  22  235 33  151 198 224 215 252 200 87  3   120 79  77  178 69  71  153 93  102 15  81  223 65  227 200 42  118 81  201 152 221 80  163 4   135 96  175 131 247 227 170 5   63  154 127 
127 107 205 199 28  39  209 232 225 40  227 130 226 141 170 245 48  210 6   119 98  157 1   29  31  254 192 129 11  66  55  85  78  27  120 120 64  197 247 128 221 208 182 82  188 209 129 17  95  128 206 105 107 172 200 214 98  84  176 220 240 189 140 248 176 196 41  234 20  173 32  57  226 158 234 4   223 5   69  89  45  209 3   160 175 79  212 174 204 168 215 73  35  127 167 20  172 224 88  34  209 127 
127 52  176 21  64  234 196 43  222 171 57  17  2   241 207 190 60  253 229 123 43  243 247 140 127 18  173 250 203 191 18  243 129 241 20  66  48  228 176 180 96  158 160 115 151 190 193 83  179 5   105 99  216 120 113 111 79  148 94  184 240 250 223 81  162 183 249 92  26  183 92  184 235 81  12  245 221 101 244 7   194 0   54  234 138 56  38  73  243 18  1   88  174 82  42  150 206 5   77  12  238 127 
127 117 143 221 15  222 173 164 170 90  7   119 61  145 200 189 150 131 167 6   7   124 210 18  116 99  19  97  179 219 69  68  221 94  222 151 165 155 145 172 206 54  70  142 228 133 185 98  147 120 38  179 217 84  177 38  108 25  169 98  109 22  179 26  147 111 88  59  205 248 70  16  215 27  44  108 192 117 175 202 126 178 184 190 51  22  50  134 170 66  122 202 65  191 44  234 33  55  231 23  9   127 
127 148 84  251 25  138 252 133 75  138 209 215 111 132 186 204 36  181 52  45  0   61  104 60  9   224 241 132 126 185 165 13  158 247 131 33  222 220 34  176 149 98  166 69  240 109 60  22  241 174 54  86  137 107 166 51  10  122 215 229 27  112 42  140 240 238 102 241 120 247 47  107 29  160 2   206 54  41  33  51  242 149 194 165 154 107 37  95  25  236 225 147 250 137 205 139 149 208 94  74  112 127 
127 30  66  141 51  119 145 62  124 5   134 194 13  207 191 192 222 124 108 126 223 196 17  89  203 142 164 36  154 211 31  64  131 33  124 68  75  42  14  70  151 225 219 75  177 43  106 43  221 56  162 19  135 165 28  202 118 242 106 35  109 72  22  198 28  171 214 8   87  79  169 41  124 205 106 94  155 12  208 92  44  97  124 189 205 73  130 77  68  66  194 226 88  197 29  115 223 3   153 50  41  127 
127 148 163 7   178 76  250 47  121 217 115 148 125 13  179 142 111 227 186 175 235 227 134 150 99  240 26  225 121 190 136 191 38  192 234 169 110 25  85  81  125 71  36  228 24  218 168 168 153 11  54  182 157 80  219 99  63  77  212 18  141 158 61  96  12  183 123 156 154 195 232 44  45  66  97  164 246 128 139 13  1   54  232 77  26  86  236 134 87  120 120 4   187 0   27  60  135 244 249 80  9   127 
127 127 127 127 127 127 127 127 127 127 127 127 127 127 127 127 127 127 127 127 127 127 127 127 127 127 127 127 127 127 127 127 127 127 127 127 127 127 127 127 127 127 127 127 127 127 127 127 127 127 127 127 127 127 127 127 127 127 127 127 127 127 127 127 127 127 127 127 127 127 127 127 127 127 127 127 127 127 127 127 127 127 127 127 127 127 127 127 127 127 127 127 127 127 127 127 127 127 127 127 127 127 
