P1
102 102
000000000000000000000000000000000000000000000000000000000000000000000000000000000000000000000000000000
010110110001101100101111001110001010001010001011010100001100100001111001001110011100010111110000000010
000001100010000001111010001001001101100011011111001001110011111010101101111011000110111011011110011100
000111000100111100111010101011101111010101110010111011011000011100011111101010110111011011101101000010
010000100000011011011111100101000000010100010001111101101000100010110001010111100011010011101000000010
001011111111001001100110010010101011010000111101000110000000100111000111001010111111000011101111100000
011110110011010011010101111110110101110001111111100011000111110101110110001010111110100101010110010000
001011110101110101000101011010010100101101100011010101001001011001111111110000100100011101101010111110
001111010110101101001000111100100011111010010101000011100110001111100100101110100111110101110101101000
000011001110000010110110101010110001000111010001011001000111000111110010110110100001011101100001100000
010111101010001100100110001101101011000001000111110001101101101101001110100100001100000010101101110000
001010001010110011111100001100111111101001100110011000111111111001011000110000010110011101010000100010
000010110001010011100111011001101100000000010100101001001110111011111000010111100001001000101111000100
010001011001001010001110001111101010011001000010011111011001011101001101000101010101100010010000101110
000111111010001001010011011001001001000110101100000110011001101011101010101000101101101001101100000010
010010000001001110111100111100110010110101101000010100011110000000100000000000110000000010000111101000
011101110111011001011110100011010111010111100101110000101100110010100011000100000111101110001101001000
001110000011100000000111101011100110011001111000111010010101101001110111101110110000110101111100010100
000011101011111111000111101110010100101110011101001101000011000011111100010011110011100111111100000000
001011101111110111001100001010001001011100100001100101110010100010000110010110101100010010010001101000
000101001010010011111101011111010000001010001000011010010001111011100010001011111101001100000111111110
010010110011110111001110000101011011100110010111011110000010000001000001001010000101001010011101011110
011110100100000111101110001000000100100110010101001010110111001100000000011100001001001111011110010000
011011100001011000110010100100000100001101100001001111111111101010100110010100010100111101010011101010
011010000000101101000100011000111110011111000101110010010100001101001101100010010010100111110011100110
000101110111000011010001001000000011110111010011010110011100111110101111100011110110100111101010110000
001001000000010000111110101011110101111000110100010101000000010010000011011101000101011101101001111110
000110100001001011010000001011111101010010011000010000100000100101101000001110010101000001000001001010
001101101011001101011110100110100111000011010100010010110111001111100001110111101001010001011110010100
001101011100001100001110001111110111000000001100011111011000101010100010011100101111100110011011000100
000011101110111111001101000000101001110101111000111010001101101111111001101011111100100110011011100110
011001101100110111110010000000100000000110100110000011011011010100001010000111100100011111010011100110
000011111000011000001011101111000111010001110010000010111000000100011110000000110110100111000110110000
010101101101100011111110000010001100000111011010010110101011110100111001010100101011011010111101110110
010101011100000100100011011111000100110110010010010110001001000011101011010101110100010110111010111100
011011100110100001111000111111000111011011011100111011110101100101011101001110101110010111011111100100
001011000111010011011011101011000110010111100011010101110010001000100101000011000100111000101101100010
010100001011000110111110010010010101011001100111111000110101100010010010010101010111101010101101100000
001100000110111110110110100100100100111110000100010001011100001001010001010101010101001000111100010110
010001010101100110100011000110100001101111000000110101000110011011001010101101110100001100100000111000
000011000111110111000011100100000110011110110111101110100001100111110111011100011101111011100001000010
011011000111100110010110110100000011111010101000110100011001001001001110100001011110110111011100110000
000000100010100011101100010010110000110101100011000110110000010100011110010110110000101001001110011000
010000011111111010011000000001101000110100011011100001101110010001001010010010001111011101011000100100
011000000101010001111001011111110100110100101000011001101010110101110010110000111101100011110011000000
011101110101000001110101110010010111010100001011110000010100101010111110110001110110111101111100101000
011001001101010011001001000010110000001100001010011001011111011010001101010011000100101011101010001010
011001111001010011001110101011100000011100011001100111011010010110000001011110000000011100010101110010
001110111010111001100111000100011010011010101100101011010001011010001111111010001010001111101000111110
000110110000110110111110101000001001110011011110001011111110111010011111010100110010110011000111101100
011011111010011010011111000010011000000010110000110011000001001010111101100111111100101010110100110000
011000000011101111111110011000001000111101001110100111000010010111001010010101100000010101010111100100
010110010111001010010001111000111101111000001110101001101001001011101000110111000001000011101011101110
001110000100100001100010001100110110000010001011111001010111100000110111001110010000110011001000010110
010100010011000000101110100010010110101010011111111111110000001001101011100011001110010101100010000000
011110000111001011010000101111011000111010100110010100010101111010000101110011010111011000011010101110
000101111110101111001010110111100010100110110000011000110100111010011010001010101110011001110000110110
010110101100100111100100100001111001111001010110101011001001001111111001101010100100011001100011100110
000010001100001011110001010100100111001111111111010111111100110010000010010000010101001011111001001110
000111100001110100000010111100100110011010100010011001110110001101001110001100010100010110110111100000
000111100001101010010111010000111000101010100100100000011010010011110010010111101011111101010110110110
010010000010101100111110101110100011101110011110000011011111010000110000100101011110100000100101010110
011011010001101001111001110010110011000000010110100000010001000010101100110010010000101010110001101000
001111000100101000110111001111100111100100010001110001011111011101100001010110010011010010111011110110
000111001000111101000010100010100100000110001011000001100101110110100001101110111110111111011010001110
010010010111011100000111111011111101100010001011000110101101011010100100010001011000101111111100100100
011011101110111100001100100111110010011010010001110111101000010101010101100111001110000011000100111110
011000001000001011010111001101100100101110001111101101000000001001111011010001111000101100110001100000
000101100110010011100111110001010011000110000010011000000000011001100001011110010100111110000100100010
000110010100111100000010011011010111110011000111001101000011101110100100000111010110100110000001001110
001010100101000001101001110011111010001010110000111011111110100100011011011001011001110011101101000100
011010000011001100100010010100001110010100110010110111011110100110010101010000100111011010110010011100
001101001000000100110011110001011100000011010010111010000001111111000011110100010110001011111110100000
001000111000000101101101001110010010110111010010110111111010011110001011010110100101100111101000101100
000001100111101001100100100110011010101111001111010001101110011000010010010000001001101111110011011110
010110101111000001101111111001110000000110000000110101001101010001100001010001100011000111101100010010
000001001011000100101110000101111111110000011100001100011001101101111111111110000110110100111101000010
010111110100011110101010101011110001110100000010011010100110111001101101110111010101011111101011100010
000110101110000000010011100011100001110001001011001010110110100001011010010100000011000000000101111100
010111101011001110100001000100101011110011000110001100111011000101000000011011111111011000100101100010
010101100100110001001100110011110010111001111001110111111001010010111101001001011101111110001011111110
000011001111101111101110001011011010010110111101000111111101000011110001101000010010100010100001100000
001101101010100111100011100001001001011111101110101100001000000111001010011101010011001110111111110010
011100100010100010001101011000001000111110111011001111000111101100000001101001100100010111000101001000
000000000010011010001111110100101101100011100010111011000110101000001000100110000111011110111011100010
011111111101001100011100011000011010000110110000000101101011110100011001111011100011110110101011011000
001010011100110111110111010010010010100111110100000001010100111000111010000001001111101101111110001000
001001111011110110010010000111110101101001010001011000110001010111100100010011000110100111111000010000
000100110100010111110110011000001011111001010001011101111100111100000111111101111111101011111110001000
010000110101011101000011101010101110101000101111000111010010010000100010111101000010010101100110001010
011001101111110111110100110100000100111100110011000000010011010101001000100110000100010010100011110110
001010011011011000001010000110100110000010111010011011000010001011001001001101011010100001011011001000
001001100011110100101101101110101110111110101011010000100110100100101010101000010111100100011101101010
000001111100111011100011101001000111111110110010011100010000101001111011010001010110001000110101101100
000100011110011111011000010000000110000101010100111100000110100100011010011101100111010011011011001100
001011010101000011010000111101110010010110110100000010110000111100101110011010010111000101110110001110
011000001011010010111111111010000001100000011101110011100000110010010010110100110111100100111111101110
011010011000011111100110111110110100111110001101101010011001001010100110010110110100000110000000000000
000111000011110111110111000010000000100000001110100101010001111100111011111001111011101011111011111000
000100101001011000111101001101100110001111100001011111111001101010011000001110001000110110010000000110
011111110010101000100001010010000100001110111111011101010010101001101000101101001000110010100011001110
000000000000000000000000000000000000000000000000000000000000000000000000000000000000000000000000000000
